
<svg  viewBox="0 0 414 458" fill="none" xmlns="http://www.w3.org/2000/svg">
<g opacity="0.1">
<rect width="414" height="458" fill="#F2994A"/>
<rect width="414" height="458" fill="url(#paint0_linear)"/>
</g>
<g opacity="0.04">
<path d="M362.195 353.475C361.945 352.641 361.529 351.89 360.863 351.223C360.114 350.472 359.198 350.055 358.282 349.804C358.199 349.638 358.199 349.471 358.199 349.387C357.865 348.219 357.366 347.385 356.617 346.634C355.451 345.466 354.035 345.133 353.286 344.966C353.203 344.966 353.036 344.882 352.953 344.882C352.87 344.549 352.703 344.215 352.62 343.881C352.37 343.297 352.037 342.797 351.538 342.38C350.871 341.629 350.039 341.128 349.123 340.962C341.129 339.126 332.137 341.712 325.059 347.969C317.566 354.476 313.569 363.486 314.319 372.078C314.735 376.583 316.65 380.838 319.731 383.924C322.229 386.427 325.476 388.179 328.973 388.846C336.8 390.431 345.626 387.595 352.62 381.255C361.029 373.663 364.776 362.735 362.195 353.475ZM350.788 379.169C344.46 384.926 336.55 387.512 329.639 386.093C326.642 385.509 323.977 384.008 321.812 381.922C319.231 379.336 317.566 375.749 317.233 371.828C316.567 364.153 320.147 355.978 326.975 350.138C333.303 344.465 341.379 342.046 348.457 343.715C348.873 343.798 349.206 343.965 349.539 344.298C349.706 344.465 349.872 344.716 350.039 344.966C350.372 345.717 350.289 346.551 349.872 347.135C350.871 347.218 351.787 347.385 352.703 347.635C353.452 347.802 354.119 347.969 354.702 348.553C355.035 348.887 355.368 349.387 355.534 350.055C355.784 350.972 355.95 351.89 356.034 352.808C356.284 352.724 356.533 352.641 356.783 352.557C357.532 352.307 358.448 352.557 359.031 353.141C359.281 353.392 359.531 353.809 359.614 354.142C362.278 364.237 356.533 373.914 350.788 379.169Z" fill="#F2994A"/>
<path d="M350.705 372.746C346.125 378.419 339.464 381.922 333.22 381.922C329.889 381.922 326.891 380.754 324.81 378.585C323.394 377.084 322.395 375.248 321.896 373.163C320.48 366.656 323.894 359.899 327.641 355.811C330.971 352.14 336.3 348.386 342.295 347.802C341.629 348.386 341.046 348.97 340.463 349.471L340.13 349.804C338.215 351.64 336.134 353.475 335.051 356.145C334.385 357.646 333.719 359.231 333.136 360.733C332.47 362.318 331.804 364.07 331.055 365.655L330.888 366.072C329.389 369.492 327.807 372.996 325.309 375.415C324.893 375.832 324.643 376.416 324.643 377C324.643 377.584 324.893 378.168 325.309 378.585C326.142 379.42 327.474 379.503 328.39 378.752C332.637 375.165 337.216 371.494 341.796 367.907C345.043 365.405 348.54 362.652 352.12 360.232L352.537 359.982C353.536 359.315 354.618 358.564 355.701 357.98C356.117 362.902 354.368 368.158 350.705 372.746Z" fill="#F2994A"/>
<path d="M351.454 355.31C350.871 355.644 350.372 355.978 349.955 356.311C346.292 358.814 342.628 361.567 339.547 363.986C338.132 365.071 336.8 366.155 335.384 367.24C335.967 365.822 336.467 364.487 337.049 363.069C337.632 361.567 338.215 360.149 338.798 358.814C339.964 356.061 342.212 353.725 344.71 351.64C345.376 351.64 347.041 351.64 348.457 351.64C349.539 351.64 350.455 352.307 350.788 353.392C351.038 354.226 351.454 355.227 351.454 355.31Z" fill="#F2994A"/>
<path d="M362.195 240.014C361.945 239.18 361.529 238.429 360.863 237.762C360.114 237.011 359.198 236.594 358.282 236.343C358.199 236.176 358.199 236.01 358.199 235.926C357.865 234.758 357.366 233.924 356.617 233.173C355.451 232.005 354.035 231.672 353.286 231.505C353.203 231.505 353.036 231.421 352.953 231.421C352.87 231.088 352.703 230.754 352.62 230.42C352.37 229.836 352.037 229.336 351.538 228.919C350.871 228.168 350.039 227.667 349.123 227.5C341.129 225.665 332.137 228.251 325.059 234.508C317.566 241.015 313.569 250.025 314.319 258.617C314.735 263.122 316.65 267.377 319.731 270.463C322.229 272.966 325.476 274.718 328.973 275.385C336.8 276.97 345.626 274.134 352.62 267.794C361.029 260.202 364.776 249.274 362.195 240.014ZM350.788 265.708C344.46 271.464 336.55 274.051 329.639 272.632C326.642 272.048 323.977 270.547 321.812 268.461C319.231 265.875 317.566 262.288 317.233 258.367C316.567 250.692 320.147 242.517 326.975 236.677C333.303 231.004 341.379 228.585 348.457 230.253C348.873 230.337 349.206 230.504 349.539 230.837C349.706 231.004 349.872 231.255 350.039 231.505C350.372 232.256 350.289 233.09 349.872 233.674C350.871 233.757 351.787 233.924 352.703 234.174C353.452 234.341 354.119 234.508 354.702 235.092C355.035 235.426 355.368 235.926 355.534 236.594C355.784 237.511 355.95 238.429 356.034 239.347C356.284 239.263 356.533 239.18 356.783 239.096C357.532 238.846 358.448 239.096 359.031 239.68C359.281 239.931 359.531 240.348 359.614 240.681C362.278 250.776 356.533 260.453 350.788 265.708Z" fill="#F2994A"/>
<path d="M350.705 259.285C346.125 264.957 339.464 268.461 333.22 268.461C329.889 268.461 326.891 267.293 324.81 265.124C323.394 263.623 322.395 261.787 321.896 259.702C320.48 253.195 323.894 246.438 327.641 242.35C330.971 238.679 336.3 234.925 342.295 234.341C341.629 234.925 341.046 235.509 340.463 236.01L340.13 236.343C338.215 238.179 336.134 240.014 335.051 242.683C334.385 244.185 333.719 245.77 333.136 247.272C332.47 248.857 331.804 250.609 331.055 252.194L330.888 252.611C329.389 256.031 327.807 259.535 325.309 261.954C324.893 262.371 324.643 262.955 324.643 263.539C324.643 264.123 324.893 264.707 325.309 265.124C326.142 265.959 327.474 266.042 328.39 265.291C332.637 261.704 337.216 258.033 341.796 254.446C345.043 251.943 348.54 249.19 352.12 246.771L352.537 246.521C353.536 245.854 354.618 245.103 355.701 244.519C356.117 249.441 354.368 254.696 350.705 259.285Z" fill="#F2994A"/>
<path d="M351.454 241.849C350.871 242.183 350.372 242.517 349.955 242.85C346.292 245.353 342.628 248.106 339.547 250.525C338.132 251.61 336.8 252.694 335.384 253.779C335.967 252.361 336.467 251.026 337.049 249.608C337.632 248.106 338.215 246.688 338.798 245.353C339.964 242.6 342.212 240.264 344.71 238.179C345.376 238.179 347.041 238.179 348.457 238.179C349.539 238.179 350.455 238.846 350.788 239.93C351.038 240.765 351.454 241.766 351.454 241.849Z" fill="#F2994A"/>
<path d="M362.195 126.553C361.945 125.719 361.529 124.968 360.863 124.3C360.114 123.55 359.198 123.132 358.282 122.882C358.199 122.715 358.199 122.549 358.199 122.465C357.865 121.297 357.366 120.463 356.617 119.712C355.451 118.544 354.035 118.211 353.286 118.044C353.203 118.044 353.036 117.96 352.953 117.96C352.87 117.627 352.703 117.293 352.62 116.959C352.37 116.375 352.037 115.875 351.538 115.458C350.871 114.707 350.039 114.206 349.123 114.039C341.129 112.204 332.137 114.79 325.059 121.047C317.566 127.554 313.569 136.564 314.319 145.156C314.735 149.661 316.65 153.916 319.731 157.002C322.229 159.505 325.476 161.257 328.973 161.924C336.8 163.509 345.626 160.673 352.62 154.333C361.029 146.741 364.776 135.813 362.195 126.553ZM350.788 152.247C344.46 158.003 336.55 160.589 329.639 159.171C326.642 158.587 323.977 157.086 321.812 155C319.231 152.414 317.566 148.827 317.233 144.906C316.567 137.231 320.147 129.056 326.975 123.216C333.303 117.543 341.379 115.124 348.457 116.792C348.873 116.876 349.206 117.043 349.539 117.376C349.706 117.543 349.872 117.793 350.039 118.044C350.372 118.794 350.289 119.629 349.872 120.213C350.871 120.296 351.787 120.463 352.703 120.713C353.452 120.88 354.119 121.047 354.702 121.631C355.035 121.965 355.368 122.465 355.534 123.132C355.784 124.05 355.95 124.968 356.034 125.885C356.284 125.802 356.533 125.719 356.783 125.635C357.532 125.385 358.448 125.635 359.031 126.219C359.281 126.469 359.531 126.887 359.614 127.22C362.278 137.314 356.533 146.991 350.788 152.247Z" fill="#F2994A"/>
<path d="M350.705 145.824C346.125 151.496 339.464 155 333.22 155C329.889 155 326.891 153.832 324.81 151.663C323.394 150.162 322.395 148.326 321.896 146.241C320.48 139.734 323.894 132.976 327.641 128.889C330.971 125.218 336.3 121.464 342.295 120.88C341.629 121.464 341.046 122.048 340.463 122.549L340.13 122.882C338.215 124.718 336.134 126.553 335.051 129.222C334.385 130.724 333.719 132.309 333.136 133.811C332.47 135.396 331.804 137.148 331.055 138.733L330.888 139.15C329.389 142.57 327.807 146.074 325.309 148.493C324.893 148.91 324.643 149.494 324.643 150.078C324.643 150.662 324.893 151.246 325.309 151.663C326.142 152.497 327.474 152.581 328.39 151.83C332.637 148.243 337.216 144.572 341.796 140.985C345.043 138.482 348.54 135.729 352.12 133.31L352.537 133.06C353.536 132.392 354.618 131.642 355.701 131.058C356.117 135.98 354.368 141.235 350.705 145.824Z" fill="#F2994A"/>
<path d="M351.454 128.388C350.871 128.722 350.372 129.056 349.955 129.389C346.292 131.892 342.628 134.645 339.547 137.064C338.132 138.149 336.8 139.233 335.384 140.318C335.967 138.899 336.467 137.565 337.049 136.146C337.632 134.645 338.215 133.227 338.798 131.892C339.964 129.139 342.212 126.803 344.71 124.718C345.376 124.718 347.041 124.718 348.457 124.718C349.539 124.718 350.455 125.385 350.788 126.469C351.038 127.304 351.454 128.305 351.454 128.388Z" fill="#F2994A"/>
<path d="M362.195 13.0917C361.945 12.2575 361.529 11.5067 360.863 10.8393C360.114 10.0885 359.198 9.67138 358.282 9.42111C358.199 9.25427 358.199 9.08742 358.199 9.004C357.865 7.83607 357.366 7.00184 356.617 6.25104C355.451 5.08311 354.035 4.74942 353.286 4.58257C353.203 4.58257 353.036 4.49915 352.953 4.49915C352.87 4.16546 352.703 3.83177 352.62 3.49807C352.37 2.91411 352.037 2.41357 351.538 1.99646C350.871 1.24565 350.039 0.745112 349.123 0.578266C341.129 -1.25704 332.137 1.32907 325.059 7.58581C317.566 14.0928 313.569 23.1025 314.319 31.6951C314.735 36.1999 316.65 40.4545 319.731 43.5412C322.229 46.0438 325.476 47.7957 328.973 48.4631C336.8 50.0482 345.626 47.2118 352.62 40.8716C361.029 33.2801 364.776 22.3517 362.195 13.0917ZM350.788 38.786C344.46 44.5422 336.55 47.1283 329.639 45.7102C326.642 45.1262 323.977 43.6246 321.812 41.539C319.231 38.9529 317.566 35.3657 317.233 31.4448C316.567 23.7699 320.147 15.5944 326.975 9.75481C333.303 4.08204 341.379 1.66277 348.457 3.33123C348.873 3.41465 349.206 3.5815 349.539 3.91519C349.706 4.08204 349.872 4.3323 350.039 4.58257C350.372 5.33338 350.289 6.16761 349.872 6.75157C350.871 6.835 351.787 7.00184 352.703 7.25211C353.452 7.41896 354.119 7.58581 354.702 8.16977C355.035 8.50346 355.368 9.004 355.534 9.67138C355.784 10.589 355.95 11.5067 356.034 12.4243C356.284 12.3409 356.533 12.2575 356.783 12.1741C357.532 11.9238 358.448 12.1741 359.031 12.758C359.281 13.0083 359.531 13.4254 359.614 13.7591C362.278 23.8533 356.533 33.5304 350.788 38.786Z" fill="#F2994A"/>
<path d="M350.705 32.3625C346.125 38.0352 339.464 41.539 333.22 41.539C329.889 41.539 326.891 40.3711 324.81 38.2021C323.394 36.7005 322.395 34.8652 321.896 32.7796C320.48 26.2726 323.894 19.5153 327.641 15.4276C330.971 11.757 336.3 8.00293 342.295 7.41897C341.629 8.00293 341.046 8.5869 340.463 9.08743L340.13 9.42113C338.215 11.2564 336.134 13.0917 335.051 15.7613C334.385 17.2629 333.719 18.8479 333.136 20.3496C332.47 21.9346 331.804 23.6865 331.055 25.2715L330.888 25.6886C329.389 29.109 327.807 32.6127 325.309 35.032C324.893 35.4491 324.643 36.0331 324.643 36.6171C324.643 37.201 324.893 37.785 325.309 38.2021C326.142 39.0363 327.474 39.1197 328.39 38.3689C332.637 34.7817 337.216 31.1111 341.796 27.5239C345.043 25.0212 348.54 22.2683 352.12 19.849L352.537 19.5987C353.536 18.9314 354.618 18.1806 355.701 17.5966C356.117 22.5186 354.368 27.7742 350.705 32.3625Z" fill="#F2994A"/>
<path d="M351.454 14.927C350.871 15.2607 350.372 15.5944 349.955 15.9281C346.292 18.4308 342.628 21.1838 339.547 23.603C338.132 24.6875 336.8 25.772 335.384 26.8565C335.967 25.4383 336.467 24.1036 337.049 22.6854C337.632 21.1838 338.215 19.7656 338.798 18.4308C339.964 15.6778 342.212 13.342 344.71 11.2564C345.376 11.2564 347.041 11.2564 348.457 11.2564C349.539 11.2564 350.455 11.9238 350.788 13.0083C351.038 13.8425 351.454 14.8436 351.454 14.927Z" fill="#F2994A"/>
<path d="M152.371 353.475C152.121 352.641 151.704 351.89 151.038 351.223C150.289 350.472 149.373 350.055 148.457 349.804C148.374 349.638 148.374 349.471 148.374 349.387C148.041 348.219 147.541 347.385 146.792 346.634C145.626 345.466 144.211 345.133 143.461 344.966C143.378 344.966 143.211 344.882 143.128 344.882C143.045 344.549 142.878 344.215 142.795 343.881C142.545 343.297 142.212 342.797 141.713 342.38C141.047 341.629 140.214 341.128 139.298 340.962C131.305 339.126 122.312 341.712 115.235 347.969C107.741 354.476 103.744 363.486 104.494 372.078C104.91 376.583 106.825 380.838 109.906 383.924C112.404 386.427 115.651 388.179 119.148 388.846C126.975 390.431 135.801 387.595 142.795 381.255C151.205 373.663 154.952 362.735 152.371 353.475ZM140.963 379.169C134.635 384.926 126.725 387.512 119.814 386.093C116.817 385.509 114.152 384.008 111.987 381.922C109.406 379.336 107.741 375.749 107.408 371.828C106.742 364.153 110.322 355.978 117.15 350.138C123.478 344.465 131.555 342.046 138.632 343.715C139.048 343.798 139.381 343.965 139.715 344.298C139.881 344.465 140.047 344.716 140.214 344.966C140.547 345.717 140.464 346.551 140.048 347.135C141.047 347.218 141.962 347.385 142.878 347.635C143.628 347.802 144.294 347.969 144.877 348.553C145.21 348.887 145.543 349.387 145.709 350.055C145.959 350.972 146.126 351.89 146.209 352.808C146.459 352.724 146.709 352.641 146.958 352.557C147.708 352.307 148.624 352.557 149.206 353.141C149.456 353.392 149.706 353.809 149.789 354.142C152.454 364.237 146.709 373.914 140.963 379.169Z" fill="#F2994A"/>
<path d="M140.88 372.746C136.301 378.419 129.64 381.922 123.395 381.922C120.064 381.922 117.067 380.754 114.985 378.585C113.57 377.084 112.571 375.248 112.071 373.163C110.655 366.656 114.069 359.899 117.816 355.811C121.146 352.14 126.475 348.386 132.47 347.802C131.804 348.386 131.222 348.97 130.639 349.471L130.306 349.804C128.391 351.64 126.309 353.475 125.226 356.145C124.56 357.646 123.894 359.231 123.311 360.733C122.645 362.318 121.979 364.07 121.23 365.655L121.063 366.072C119.565 369.492 117.983 372.996 115.485 375.415C115.068 375.832 114.819 376.416 114.819 377C114.819 377.584 115.068 378.168 115.485 378.585C116.317 379.42 117.65 379.503 118.565 378.752C122.812 375.165 127.391 371.494 131.971 367.907C135.218 365.405 138.715 362.652 142.296 360.232L142.712 359.982C143.711 359.315 144.794 358.564 145.876 357.98C146.292 362.902 144.544 368.158 140.88 372.746Z" fill="#F2994A"/>
<path d="M141.63 355.31C141.047 355.644 140.547 355.978 140.131 356.311C136.467 358.814 132.804 361.567 129.723 363.986C128.307 365.071 126.975 366.155 125.56 367.24C126.142 365.822 126.642 364.487 127.225 363.069C127.808 361.567 128.391 360.149 128.973 358.814C130.139 356.061 132.387 353.725 134.885 351.64C135.551 351.64 137.217 351.64 138.632 351.64C139.714 351.64 140.63 352.307 140.963 353.392C141.213 354.226 141.63 355.227 141.63 355.31Z" fill="#F2994A"/>
<path d="M152.371 240.014C152.121 239.18 151.704 238.429 151.038 237.762C150.289 237.011 149.373 236.594 148.457 236.343C148.374 236.176 148.374 236.01 148.374 235.926C148.041 234.758 147.541 233.924 146.792 233.173C145.626 232.005 144.211 231.672 143.461 231.505C143.378 231.505 143.211 231.421 143.128 231.421C143.045 231.088 142.878 230.754 142.795 230.42C142.545 229.836 142.212 229.336 141.713 228.919C141.047 228.168 140.214 227.667 139.298 227.5C131.305 225.665 122.312 228.251 115.235 234.508C107.741 241.015 103.744 250.025 104.494 258.617C104.91 263.122 106.825 267.377 109.906 270.463C112.404 272.966 115.651 274.718 119.148 275.385C126.975 276.97 135.801 274.134 142.795 267.794C151.205 260.202 154.952 249.274 152.371 240.014ZM140.963 265.708C134.635 271.464 126.725 274.051 119.814 272.632C116.817 272.048 114.152 270.547 111.987 268.461C109.406 265.875 107.741 262.288 107.408 258.367C106.742 250.692 110.322 242.517 117.15 236.677C123.478 231.004 131.555 228.585 138.632 230.253C139.048 230.337 139.381 230.504 139.715 230.837C139.881 231.004 140.047 231.255 140.214 231.505C140.547 232.256 140.464 233.09 140.048 233.674C141.047 233.757 141.962 233.924 142.878 234.174C143.628 234.341 144.294 234.508 144.877 235.092C145.21 235.426 145.543 235.926 145.709 236.594C145.959 237.511 146.126 238.429 146.209 239.347C146.459 239.263 146.709 239.18 146.958 239.096C147.708 238.846 148.624 239.096 149.206 239.68C149.456 239.931 149.706 240.348 149.789 240.681C152.454 250.776 146.709 260.453 140.963 265.708Z" fill="#F2994A"/>
<path d="M140.88 259.285C136.301 264.957 129.64 268.461 123.395 268.461C120.064 268.461 117.067 267.293 114.985 265.124C113.57 263.623 112.571 261.787 112.071 259.702C110.655 253.195 114.069 246.438 117.816 242.35C121.146 238.679 126.475 234.925 132.47 234.341C131.804 234.925 131.222 235.509 130.639 236.01L130.306 236.343C128.391 238.179 126.309 240.014 125.226 242.683C124.56 244.185 123.894 245.77 123.311 247.272C122.645 248.857 121.979 250.609 121.23 252.194L121.063 252.611C119.565 256.031 117.983 259.535 115.485 261.954C115.068 262.371 114.819 262.955 114.819 263.539C114.819 264.123 115.068 264.707 115.485 265.124C116.317 265.959 117.65 266.042 118.565 265.291C122.812 261.704 127.391 258.033 131.971 254.446C135.218 251.943 138.715 249.19 142.296 246.771L142.712 246.521C143.711 245.854 144.794 245.103 145.876 244.519C146.292 249.441 144.544 254.696 140.88 259.285Z" fill="#F2994A"/>
<path d="M141.63 241.849C141.047 242.183 140.547 242.517 140.131 242.85C136.467 245.353 132.804 248.106 129.723 250.525C128.307 251.61 126.975 252.694 125.56 253.779C126.142 252.361 126.642 251.026 127.225 249.608C127.808 248.106 128.391 246.688 128.973 245.353C130.139 242.6 132.387 240.264 134.885 238.179C135.551 238.179 137.217 238.179 138.632 238.179C139.714 238.179 140.63 238.846 140.963 239.93C141.213 240.765 141.63 241.766 141.63 241.849Z" fill="#F2994A"/>
<path d="M152.371 126.553C152.121 125.719 151.704 124.968 151.038 124.3C150.289 123.55 149.373 123.132 148.457 122.882C148.374 122.715 148.374 122.549 148.374 122.465C148.041 121.297 147.541 120.463 146.792 119.712C145.626 118.544 144.211 118.211 143.461 118.044C143.378 118.044 143.211 117.96 143.128 117.96C143.045 117.627 142.878 117.293 142.795 116.959C142.545 116.375 142.212 115.875 141.713 115.458C141.047 114.707 140.214 114.206 139.298 114.039C131.305 112.204 122.312 114.79 115.235 121.047C107.741 127.554 103.744 136.564 104.494 145.156C104.91 149.661 106.825 153.916 109.906 157.002C112.404 159.505 115.651 161.257 119.148 161.924C126.975 163.509 135.801 160.673 142.795 154.333C151.205 146.741 154.952 135.813 152.371 126.553ZM140.963 152.247C134.635 158.003 126.725 160.589 119.814 159.171C116.817 158.587 114.152 157.086 111.987 155C109.406 152.414 107.741 148.827 107.408 144.906C106.742 137.231 110.322 129.056 117.15 123.216C123.478 117.543 131.555 115.124 138.632 116.792C139.048 116.876 139.381 117.043 139.715 117.376C139.881 117.543 140.047 117.793 140.214 118.044C140.547 118.794 140.464 119.629 140.048 120.213C141.047 120.296 141.962 120.463 142.878 120.713C143.628 120.88 144.294 121.047 144.877 121.631C145.21 121.965 145.543 122.465 145.709 123.132C145.959 124.05 146.126 124.968 146.209 125.885C146.459 125.802 146.709 125.719 146.958 125.635C147.708 125.385 148.624 125.635 149.206 126.219C149.456 126.469 149.706 126.887 149.789 127.22C152.454 137.314 146.709 146.991 140.963 152.247Z" fill="#F2994A"/>
<path d="M140.88 145.824C136.301 151.496 129.64 155 123.395 155C120.064 155 117.067 153.832 114.985 151.663C113.57 150.162 112.571 148.326 112.071 146.241C110.655 139.734 114.069 132.976 117.816 128.889C121.146 125.218 126.475 121.464 132.47 120.88C131.804 121.464 131.222 122.048 130.639 122.549L130.306 122.882C128.391 124.718 126.309 126.553 125.226 129.222C124.56 130.724 123.894 132.309 123.311 133.811C122.645 135.396 121.979 137.148 121.23 138.733L121.063 139.15C119.565 142.57 117.983 146.074 115.485 148.493C115.068 148.91 114.819 149.494 114.819 150.078C114.819 150.662 115.068 151.246 115.485 151.663C116.317 152.497 117.65 152.581 118.565 151.83C122.812 148.243 127.391 144.572 131.971 140.985C135.218 138.482 138.715 135.729 142.296 133.31L142.712 133.06C143.711 132.392 144.794 131.642 145.876 131.058C146.292 135.98 144.544 141.235 140.88 145.824Z" fill="#F2994A"/>
<path d="M141.63 128.388C141.047 128.722 140.547 129.056 140.131 129.389C136.467 131.892 132.804 134.645 129.723 137.064C128.307 138.149 126.975 139.233 125.56 140.318C126.142 138.899 126.642 137.565 127.225 136.146C127.808 134.645 128.391 133.227 128.973 131.892C130.139 129.139 132.387 126.803 134.885 124.718C135.551 124.718 137.217 124.718 138.632 124.718C139.714 124.718 140.63 125.385 140.963 126.469C141.213 127.304 141.63 128.305 141.63 128.388Z" fill="#F2994A"/>
<path d="M152.371 13.0917C152.121 12.2575 151.704 11.5067 151.038 10.8393C150.289 10.0885 149.373 9.67138 148.457 9.42111C148.374 9.25427 148.374 9.08742 148.374 9.004C148.041 7.83607 147.541 7.00184 146.792 6.25104C145.626 5.08311 144.211 4.74942 143.461 4.58257C143.378 4.58257 143.211 4.49915 143.128 4.49915C143.045 4.16546 142.878 3.83177 142.795 3.49807C142.545 2.91411 142.212 2.41357 141.713 1.99646C141.047 1.24565 140.214 0.745112 139.298 0.578266C131.305 -1.25704 122.312 1.32907 115.235 7.58581C107.741 14.0928 103.744 23.1025 104.494 31.6951C104.91 36.1999 106.825 40.4545 109.906 43.5412C112.404 46.0438 115.651 47.7957 119.148 48.4631C126.975 50.0482 135.801 47.2118 142.795 40.8716C151.205 33.2801 154.952 22.3517 152.371 13.0917ZM140.963 38.786C134.635 44.5422 126.725 47.1283 119.814 45.7102C116.817 45.1262 114.152 43.6246 111.987 41.539C109.406 38.9529 107.741 35.3657 107.408 31.4448C106.742 23.7699 110.322 15.5944 117.15 9.75481C123.478 4.08204 131.555 1.66277 138.632 3.33123C139.048 3.41465 139.381 3.5815 139.715 3.91519C139.881 4.08204 140.047 4.3323 140.214 4.58257C140.547 5.33338 140.464 6.16761 140.048 6.75157C141.047 6.835 141.962 7.00184 142.878 7.25211C143.628 7.41896 144.294 7.58581 144.877 8.16977C145.21 8.50346 145.543 9.004 145.709 9.67138C145.959 10.589 146.126 11.5067 146.209 12.4243C146.459 12.3409 146.709 12.2575 146.958 12.1741C147.708 11.9238 148.624 12.1741 149.206 12.758C149.456 13.0083 149.706 13.4254 149.789 13.7591C152.454 23.8533 146.709 33.5304 140.963 38.786Z" fill="#F2994A"/>
<path d="M140.88 32.3625C136.301 38.0352 129.64 41.539 123.395 41.539C120.064 41.539 117.067 40.3711 114.985 38.2021C113.57 36.7005 112.571 34.8652 112.071 32.7796C110.655 26.2726 114.069 19.5153 117.816 15.4276C121.146 11.757 126.475 8.00293 132.47 7.41897C131.804 8.00293 131.222 8.5869 130.639 9.08743L130.306 9.42113C128.391 11.2564 126.309 13.0917 125.226 15.7613C124.56 17.2629 123.894 18.8479 123.311 20.3496C122.645 21.9346 121.979 23.6865 121.23 25.2715L121.063 25.6886C119.565 29.109 117.983 32.6127 115.485 35.032C115.068 35.4491 114.819 36.0331 114.819 36.6171C114.819 37.201 115.068 37.785 115.485 38.2021C116.317 39.0363 117.65 39.1197 118.565 38.3689C122.812 34.7817 127.391 31.1111 131.971 27.5239C135.218 25.0212 138.715 22.2683 142.296 19.849L142.712 19.5987C143.711 18.9314 144.794 18.1806 145.876 17.5966C146.292 22.5186 144.544 27.7742 140.88 32.3625Z" fill="#F2994A"/>
<path d="M141.63 14.927C141.047 15.2607 140.547 15.5944 140.131 15.9281C136.467 18.4308 132.804 21.1838 129.723 23.603C128.307 24.6875 126.975 25.772 125.56 26.8565C126.142 25.4383 126.642 24.1036 127.225 22.6854C127.808 21.1838 128.391 19.7656 128.973 18.4308C130.139 15.6778 132.387 13.342 134.885 11.2564C135.551 11.2564 137.217 11.2564 138.632 11.2564C139.714 11.2564 140.63 11.9238 140.963 13.0083C141.213 13.8425 141.63 14.8436 141.63 14.927Z" fill="#F2994A"/>
<path d="M260.918 410.197C261.168 409.363 261.584 408.612 262.25 407.945C263 407.194 263.916 406.777 264.831 406.526C264.915 406.36 264.915 406.193 264.915 406.109C265.248 404.941 265.747 404.107 266.497 403.356C267.662 402.188 269.078 401.855 269.827 401.688C269.911 401.688 270.077 401.604 270.16 401.604C270.244 401.271 270.41 400.937 270.493 400.603C270.743 400.019 271.076 399.519 271.576 399.102C272.242 398.351 273.075 397.85 273.991 397.684C281.984 395.848 290.976 398.434 298.054 404.691C305.548 411.198 309.544 420.208 308.795 428.8C308.379 433.305 306.463 437.56 303.383 440.646C300.885 443.149 297.637 444.901 294.14 445.568C286.314 447.153 277.488 444.317 270.493 437.977C262.084 430.385 258.337 419.457 260.918 410.197ZM272.325 435.891C278.653 441.647 286.563 444.234 293.474 442.815C296.472 442.231 299.136 440.73 301.301 438.644C303.882 436.058 305.548 432.471 305.881 428.55C306.547 420.875 302.966 412.7 296.139 406.86C289.811 401.187 281.734 398.768 274.657 400.437C274.24 400.52 273.907 400.687 273.574 401.02C273.408 401.187 273.241 401.438 273.075 401.688C272.742 402.439 272.825 403.273 273.241 403.857C272.242 403.94 271.326 404.107 270.41 404.357C269.661 404.524 268.995 404.691 268.412 405.275C268.079 405.609 267.746 406.109 267.579 406.777C267.329 407.694 267.163 408.612 267.08 409.53C266.83 409.446 266.58 409.363 266.33 409.279C265.581 409.029 264.665 409.279 264.082 409.863C263.832 410.114 263.583 410.531 263.499 410.864C260.835 420.959 266.58 430.636 272.325 435.891Z" fill="#F2994A"/>
<path d="M272.409 429.468C276.988 435.141 283.649 438.644 289.894 438.644C293.224 438.644 296.222 437.476 298.303 435.307C299.719 433.806 300.718 431.97 301.218 429.885C302.633 423.378 299.22 416.621 295.473 412.533C292.142 408.862 286.813 405.108 280.818 404.524C281.484 405.108 282.067 405.692 282.65 406.193L282.983 406.526C284.898 408.362 286.98 410.197 288.062 412.867C288.728 414.368 289.394 415.953 289.977 417.455C290.643 419.04 291.309 420.792 292.059 422.377L292.225 422.794C293.724 426.214 295.306 429.718 297.804 432.137C298.22 432.554 298.47 433.138 298.47 433.722C298.47 434.306 298.22 434.89 297.804 435.307C296.971 436.142 295.639 436.225 294.723 435.474C290.477 431.887 285.897 428.216 281.318 424.629C278.07 422.127 274.573 419.374 270.993 416.954L270.577 416.704C269.578 416.037 268.495 415.286 267.413 414.702C266.996 419.624 268.745 424.88 272.409 429.468Z" fill="#F2994A"/>
<path d="M271.659 412.032C272.242 412.366 272.742 412.7 273.158 413.033C276.821 415.536 280.485 418.289 283.566 420.708C284.981 421.793 286.314 422.877 287.729 423.962C287.146 422.544 286.647 421.209 286.064 419.791C285.481 418.289 284.898 416.871 284.315 415.536C283.15 412.783 280.901 410.447 278.403 408.362C277.737 408.362 276.072 408.362 274.657 408.362C273.574 408.362 272.658 409.029 272.325 410.114C272.075 410.948 271.659 411.949 271.659 412.032Z" fill="#F2994A"/>
<path d="M260.918 296.736C261.168 295.902 261.584 295.151 262.25 294.483C263 293.733 263.916 293.316 264.831 293.065C264.915 292.898 264.915 292.732 264.915 292.648C265.248 291.48 265.747 290.646 266.497 289.895C267.662 288.727 269.078 288.394 269.827 288.227C269.911 288.227 270.077 288.143 270.16 288.143C270.244 287.81 270.41 287.476 270.493 287.142C270.743 286.558 271.076 286.058 271.576 285.641C272.242 284.89 273.075 284.389 273.991 284.222C281.984 282.387 290.976 284.973 298.054 291.23C305.548 297.737 309.544 306.747 308.795 315.339C308.379 319.844 306.463 324.099 303.383 327.185C300.885 329.688 297.637 331.44 294.14 332.107C286.314 333.692 277.488 330.856 270.493 324.516C262.084 316.924 258.337 305.996 260.918 296.736ZM272.325 322.43C278.653 328.186 286.563 330.773 293.474 329.354C296.472 328.77 299.136 327.269 301.301 325.183C303.882 322.597 305.548 319.01 305.881 315.089C306.547 307.414 302.966 299.239 296.139 293.399C289.811 287.726 281.734 285.307 274.657 286.975C274.24 287.059 273.907 287.226 273.574 287.559C273.408 287.726 273.241 287.977 273.075 288.227C272.742 288.978 272.825 289.812 273.241 290.396C272.242 290.479 271.326 290.646 270.41 290.896C269.661 291.063 268.995 291.23 268.412 291.814C268.079 292.148 267.746 292.648 267.579 293.316C267.329 294.233 267.163 295.151 267.08 296.069C266.83 295.985 266.58 295.902 266.33 295.818C265.581 295.568 264.665 295.818 264.082 296.402C263.832 296.652 263.583 297.07 263.499 297.403C260.835 307.497 266.58 317.175 272.325 322.43Z" fill="#F2994A"/>
<path d="M272.409 316.007C276.988 321.679 283.649 325.183 289.894 325.183C293.224 325.183 296.222 324.015 298.303 321.846C299.719 320.345 300.718 318.509 301.218 316.424C302.633 309.917 299.22 303.16 295.473 299.072C292.142 295.401 286.813 291.647 280.818 291.063C281.484 291.647 282.067 292.231 282.65 292.732L282.983 293.065C284.898 294.901 286.98 296.736 288.062 299.405C288.728 300.907 289.394 302.492 289.977 303.994C290.643 305.579 291.309 307.331 292.059 308.916L292.225 309.333C293.724 312.753 295.306 316.257 297.804 318.676C298.22 319.093 298.47 319.677 298.47 320.261C298.47 320.845 298.22 321.429 297.804 321.846C296.971 322.681 295.639 322.764 294.723 322.013C290.477 318.426 285.897 314.755 281.318 311.168C278.07 308.665 274.573 305.912 270.993 303.493L270.577 303.243C269.578 302.576 268.495 301.825 267.413 301.241C266.996 306.163 268.745 311.418 272.409 316.007Z" fill="#F2994A"/>
<path d="M271.659 298.571C272.242 298.905 272.742 299.239 273.158 299.572C276.821 302.075 280.485 304.828 283.566 307.247C284.981 308.332 286.314 309.416 287.729 310.501C287.146 309.083 286.647 307.748 286.064 306.33C285.481 304.828 284.898 303.41 284.315 302.075C283.15 299.322 280.901 296.986 278.403 294.901C277.737 294.901 276.072 294.901 274.657 294.901C273.574 294.901 272.658 295.568 272.325 296.652C272.075 297.487 271.659 298.488 271.659 298.571Z" fill="#F2994A"/>
<path d="M260.918 183.275C261.168 182.441 261.584 181.69 262.25 181.022C263 180.272 263.916 179.854 264.831 179.604C264.915 179.437 264.915 179.271 264.915 179.187C265.248 178.019 265.747 177.185 266.497 176.434C267.662 175.266 269.078 174.933 269.827 174.766C269.911 174.766 270.077 174.682 270.16 174.682C270.244 174.349 270.41 174.015 270.493 173.681C270.743 173.097 271.076 172.597 271.576 172.18C272.242 171.429 273.075 170.928 273.991 170.761C281.984 168.926 290.976 171.512 298.054 177.769C305.548 184.276 309.544 193.286 308.795 201.878C308.379 206.383 306.463 210.638 303.383 213.724C300.885 216.227 297.637 217.979 294.14 218.646C286.314 220.231 277.488 217.395 270.493 211.055C262.084 203.463 258.337 192.535 260.918 183.275ZM272.325 208.969C278.653 214.725 286.563 217.311 293.474 215.893C296.472 215.309 299.136 213.808 301.301 211.722C303.882 209.136 305.548 205.549 305.881 201.628C306.547 193.953 302.966 185.778 296.139 179.938C289.811 174.265 281.734 171.846 274.657 173.514C274.24 173.598 273.907 173.765 273.574 174.098C273.408 174.265 273.241 174.515 273.075 174.766C272.742 175.516 272.825 176.351 273.241 176.935C272.242 177.018 271.326 177.185 270.41 177.435C269.661 177.602 268.995 177.769 268.412 178.353C268.079 178.687 267.746 179.187 267.579 179.854C267.329 180.772 267.163 181.69 267.08 182.607C266.83 182.524 266.58 182.441 266.33 182.357C265.581 182.107 264.665 182.357 264.082 182.941C263.832 183.191 263.583 183.609 263.499 183.942C260.835 194.036 266.58 203.713 272.325 208.969Z" fill="#F2994A"/>
<path d="M272.409 202.546C276.988 208.218 283.649 211.722 289.894 211.722C293.224 211.722 296.222 210.554 298.303 208.385C299.719 206.884 300.718 205.048 301.218 202.963C302.633 196.456 299.22 189.698 295.473 185.611C292.142 181.94 286.813 178.186 280.818 177.602C281.484 178.186 282.067 178.77 282.65 179.271L282.983 179.604C284.898 181.44 286.98 183.275 288.062 185.944C288.728 187.446 289.394 189.031 289.977 190.533C290.643 192.118 291.309 193.87 292.059 195.455L292.225 195.872C293.724 199.292 295.306 202.796 297.804 205.215C298.22 205.632 298.47 206.216 298.47 206.8C298.47 207.384 298.22 207.968 297.804 208.385C296.971 209.219 295.639 209.303 294.723 208.552C290.477 204.965 285.897 201.294 281.318 197.707C278.07 195.204 274.573 192.451 270.993 190.032L270.577 189.782C269.578 189.114 268.495 188.364 267.413 187.78C266.996 192.702 268.745 197.957 272.409 202.546Z" fill="#F2994A"/>
<path d="M271.659 185.11C272.242 185.444 272.742 185.778 273.158 186.111C276.821 188.614 280.485 191.367 283.566 193.786C284.981 194.871 286.314 195.955 287.729 197.04C287.146 195.621 286.647 194.287 286.064 192.868C285.481 191.367 284.898 189.949 284.315 188.614C283.15 185.861 280.901 183.525 278.403 181.439C277.737 181.439 276.072 181.439 274.657 181.439C273.574 181.439 272.658 182.107 272.325 183.191C272.075 184.026 271.659 185.027 271.659 185.11Z" fill="#F2994A"/>
<path d="M260.918 69.8137C261.168 68.9795 261.584 68.2287 262.25 67.5613C263 66.8105 263.916 66.3934 264.831 66.1431C264.915 65.9763 264.915 65.8094 264.915 65.726C265.248 64.5581 265.747 63.7238 266.497 62.973C267.662 61.8051 269.078 61.4714 269.827 61.3046C269.911 61.3046 270.077 61.2211 270.16 61.2211C270.244 60.8875 270.41 60.5538 270.493 60.2201C270.743 59.6361 271.076 59.1356 271.576 58.7185C272.242 57.9676 273.075 57.4671 273.991 57.3003C281.984 55.465 290.976 58.0511 298.054 64.3078C305.548 70.8148 309.544 79.8245 308.795 88.4171C308.379 92.9219 306.463 97.1765 303.383 100.263C300.885 102.766 297.637 104.518 294.14 105.185C286.314 106.77 277.488 103.934 270.493 97.5936C262.084 90.0021 258.337 79.0737 260.918 69.8137ZM272.325 95.508C278.653 101.264 286.563 103.85 293.474 102.432C296.472 101.848 299.136 100.347 301.301 98.261C303.882 95.6749 305.548 92.0877 305.881 88.1668C306.547 80.4919 302.966 72.3164 296.139 66.4768C289.811 60.804 281.734 58.3848 274.657 60.0532C274.24 60.1366 273.907 60.3035 273.574 60.6372C273.408 60.804 273.241 61.0543 273.075 61.3046C272.742 62.0554 272.825 62.8896 273.241 63.4736C272.242 63.557 271.326 63.7238 270.41 63.9741C269.661 64.1409 268.995 64.3078 268.412 64.8918C268.079 65.2255 267.746 65.726 267.579 66.3934C267.329 67.311 267.163 68.2287 267.08 69.1463C266.83 69.0629 266.58 68.9795 266.33 68.8961C265.581 68.6458 264.665 68.8961 264.082 69.48C263.832 69.7303 263.583 70.1474 263.499 70.4811C260.835 80.5753 266.58 90.2524 272.325 95.508Z" fill="#F2994A"/>
<path d="M272.409 89.0845C276.988 94.7572 283.649 98.261 289.894 98.261C293.224 98.261 296.222 97.0931 298.303 94.9241C299.719 93.4225 300.718 91.5872 301.218 89.5016C302.633 82.9946 299.22 76.2373 295.473 72.1496C292.142 68.479 286.813 64.7249 280.818 64.141C281.484 64.7249 282.067 65.3089 282.65 65.8094L282.983 66.1431C284.898 67.9784 286.98 69.8137 288.062 72.4833C288.728 73.9849 289.394 75.5699 289.977 77.0715C290.643 78.6566 291.309 80.4085 292.059 81.9935L292.225 82.4106C293.724 85.831 295.306 89.3347 297.804 91.754C298.22 92.1711 298.47 92.7551 298.47 93.3391C298.47 93.923 298.22 94.507 297.804 94.9241C296.971 95.7583 295.639 95.8417 294.723 95.0909C290.477 91.5037 285.897 87.8331 281.318 84.2459C278.07 81.7432 274.573 78.9903 270.993 76.571L270.577 76.3207C269.578 75.6534 268.495 74.9025 267.413 74.3186C266.996 79.2405 268.745 84.4962 272.409 89.0845Z" fill="#F2994A"/>
<path d="M271.659 71.649C272.242 71.9827 272.742 72.3164 273.158 72.6501C276.821 75.1528 280.485 77.9058 283.566 80.325C284.981 81.4095 286.314 82.494 287.729 83.5785C287.146 82.1603 286.647 80.8256 286.064 79.4074C285.481 77.9058 284.898 76.4876 284.315 75.1528C283.15 72.3998 280.901 70.064 278.403 67.9784C277.737 67.9784 276.072 67.9784 274.657 67.9784C273.574 67.9784 272.658 68.6458 272.325 69.7303C272.075 70.5645 271.659 71.5656 271.659 71.649Z" fill="#F2994A"/>
<path d="M51.0933 410.197C51.3431 409.363 51.7593 408.612 52.4254 407.945C53.1748 407.194 54.0907 406.777 55.0066 406.526C55.0899 406.36 55.09 406.193 55.09 406.109C55.423 404.941 55.9225 404.107 56.6719 403.356C57.8376 402.188 59.2532 401.855 60.0026 401.688C60.0859 401.688 60.2523 401.604 60.3356 401.604C60.4189 401.271 60.5853 400.937 60.6686 400.603C60.9184 400.019 61.2514 399.519 61.751 399.102C62.4171 398.351 63.2499 397.85 64.1658 397.684C72.1591 395.848 81.1516 398.434 88.229 404.691C95.7228 411.198 99.7194 420.208 98.97 428.8C98.5537 433.305 96.6385 437.56 93.5578 440.646C91.0599 443.149 87.8127 444.901 84.3156 445.568C76.4888 447.153 67.6628 444.317 60.6686 437.977C52.259 430.385 48.5121 419.457 51.0933 410.197ZM62.5004 435.891C68.8284 441.647 76.7384 444.234 83.6493 442.815C86.6468 442.231 89.3115 440.73 91.4763 438.644C94.0575 436.058 95.7228 432.471 96.0558 428.55C96.7219 420.875 93.1415 412.7 86.3139 406.86C79.9858 401.187 71.9094 398.768 64.8319 400.437C64.4156 400.52 64.0824 400.687 63.7493 401.02C63.5828 401.187 63.4163 401.438 63.2498 401.688C62.9167 402.439 63 403.273 63.4163 403.857C62.4171 403.94 61.5014 404.107 60.5855 404.357C59.8361 404.524 59.1698 404.691 58.5869 405.275C58.2539 405.609 57.921 406.109 57.7544 406.777C57.5046 407.694 57.3381 408.612 57.2548 409.53C57.005 409.446 56.7552 409.363 56.5054 409.279C55.756 409.029 54.8402 409.279 54.2574 409.863C54.0076 410.114 53.7577 410.531 53.6745 410.864C51.01 420.959 56.7552 430.636 62.5004 435.891Z" fill="#F2994A"/>
<path d="M62.5838 429.468C67.1633 435.141 73.8242 438.644 80.069 438.644C83.3996 438.644 86.3971 437.476 88.4787 435.307C89.8941 433.806 90.8934 431.97 91.393 429.885C92.8085 423.378 89.3947 416.621 85.6479 412.533C82.3173 408.862 76.9884 405.108 70.9934 404.524C71.6595 405.108 72.2423 405.692 72.8251 406.193L73.1581 406.526C75.0732 408.362 77.1549 410.197 78.2373 412.867C78.9034 414.368 79.5695 415.953 80.1524 417.455C80.8185 419.04 81.4845 420.792 82.2339 422.377L82.4005 422.794C83.8993 426.214 85.4812 429.718 87.9792 432.137C88.3955 432.554 88.6453 433.138 88.6453 433.722C88.6453 434.306 88.3955 434.89 87.9792 435.307C87.1465 436.142 85.8142 436.225 84.8983 435.474C80.6519 431.887 76.0725 428.216 71.493 424.629C68.2457 422.127 64.7485 419.374 61.1681 416.954L60.7519 416.704C59.7527 416.037 58.6702 415.286 57.5878 414.702C57.1715 419.624 58.9202 424.88 62.5838 429.468Z" fill="#F2994A"/>
<path d="M61.8343 412.032C62.4171 412.366 62.9167 412.7 63.333 413.033C66.9966 415.536 70.6602 418.289 73.741 420.708C75.1565 421.793 76.4887 422.877 77.9042 423.962C77.3214 422.544 76.8219 421.209 76.239 419.791C75.6562 418.289 75.0732 416.871 74.4904 415.536C73.3247 412.783 71.0766 410.447 68.5786 408.362C67.9125 408.362 66.2474 408.362 64.8319 408.362C63.7495 408.362 62.8335 409.029 62.5004 410.114C62.2506 410.948 61.8343 411.949 61.8343 412.032Z" fill="#F2994A"/>
<path d="M51.0933 296.736C51.3431 295.902 51.7593 295.151 52.4254 294.483C53.1748 293.733 54.0907 293.316 55.0066 293.065C55.0899 292.898 55.09 292.732 55.09 292.648C55.423 291.48 55.9225 290.646 56.6719 289.895C57.8376 288.727 59.2532 288.394 60.0026 288.227C60.0859 288.227 60.2523 288.143 60.3356 288.143C60.4189 287.81 60.5853 287.476 60.6686 287.142C60.9184 286.558 61.2514 286.058 61.751 285.641C62.4171 284.89 63.2499 284.389 64.1658 284.222C72.1591 282.387 81.1516 284.973 88.229 291.23C95.7228 297.737 99.7194 306.747 98.97 315.339C98.5537 319.844 96.6385 324.099 93.5578 327.185C91.0599 329.688 87.8127 331.44 84.3156 332.107C76.4888 333.692 67.6628 330.856 60.6686 324.516C52.259 316.924 48.5121 305.996 51.0933 296.736ZM62.5004 322.43C68.8284 328.186 76.7384 330.773 83.6493 329.354C86.6468 328.77 89.3115 327.269 91.4763 325.183C94.0575 322.597 95.7228 319.01 96.0558 315.089C96.7219 307.414 93.1415 299.239 86.3139 293.399C79.9858 287.726 71.9094 285.307 64.8319 286.975C64.4156 287.059 64.0824 287.226 63.7493 287.559C63.5828 287.726 63.4163 287.977 63.2498 288.227C62.9167 288.978 63 289.812 63.4163 290.396C62.4171 290.479 61.5014 290.646 60.5855 290.896C59.8361 291.063 59.1698 291.23 58.5869 291.814C58.2539 292.148 57.921 292.648 57.7544 293.316C57.5046 294.233 57.3381 295.151 57.2548 296.069C57.005 295.985 56.7552 295.902 56.5054 295.818C55.756 295.568 54.8402 295.818 54.2574 296.402C54.0076 296.652 53.7577 297.07 53.6745 297.403C51.01 307.497 56.7552 317.175 62.5004 322.43Z" fill="#F2994A"/>
<path d="M62.5838 316.007C67.1633 321.679 73.8242 325.183 80.069 325.183C83.3996 325.183 86.3971 324.015 88.4787 321.846C89.8941 320.345 90.8934 318.509 91.393 316.424C92.8085 309.917 89.3947 303.16 85.6479 299.072C82.3173 295.401 76.9884 291.647 70.9934 291.063C71.6595 291.647 72.2423 292.231 72.8251 292.732L73.1581 293.065C75.0732 294.901 77.1549 296.736 78.2373 299.405C78.9034 300.907 79.5695 302.492 80.1524 303.994C80.8185 305.579 81.4845 307.331 82.2339 308.916L82.4005 309.333C83.8993 312.753 85.4812 316.257 87.9792 318.676C88.3955 319.093 88.6453 319.677 88.6453 320.261C88.6453 320.845 88.3955 321.429 87.9792 321.846C87.1465 322.681 85.8142 322.764 84.8983 322.013C80.6519 318.426 76.0725 314.755 71.493 311.168C68.2457 308.665 64.7485 305.912 61.1681 303.493L60.7519 303.243C59.7527 302.576 58.6702 301.825 57.5878 301.241C57.1715 306.163 58.9202 311.418 62.5838 316.007Z" fill="#F2994A"/>
<path d="M61.8343 298.571C62.4171 298.905 62.9167 299.239 63.333 299.572C66.9966 302.075 70.6602 304.828 73.741 307.247C75.1565 308.332 76.4887 309.416 77.9042 310.501C77.3214 309.083 76.8219 307.748 76.239 306.33C75.6562 304.828 75.0732 303.41 74.4904 302.075C73.3247 299.322 71.0766 296.986 68.5786 294.901C67.9125 294.901 66.2474 294.901 64.8319 294.901C63.7495 294.901 62.8335 295.568 62.5004 296.652C62.2506 297.487 61.8343 298.488 61.8343 298.571Z" fill="#F2994A"/>
<path d="M51.0933 183.275C51.3431 182.441 51.7593 181.69 52.4254 181.022C53.1748 180.272 54.0907 179.854 55.0066 179.604C55.0899 179.437 55.09 179.271 55.09 179.187C55.423 178.019 55.9225 177.185 56.6719 176.434C57.8376 175.266 59.2532 174.933 60.0026 174.766C60.0859 174.766 60.2523 174.682 60.3356 174.682C60.4189 174.349 60.5853 174.015 60.6686 173.681C60.9184 173.097 61.2514 172.597 61.751 172.18C62.4171 171.429 63.2499 170.928 64.1658 170.761C72.1591 168.926 81.1516 171.512 88.229 177.769C95.7228 184.276 99.7194 193.286 98.97 201.878C98.5537 206.383 96.6385 210.638 93.5578 213.724C91.0599 216.227 87.8127 217.979 84.3156 218.646C76.4888 220.231 67.6628 217.395 60.6686 211.055C52.259 203.463 48.5121 192.535 51.0933 183.275ZM62.5004 208.969C68.8284 214.725 76.7384 217.311 83.6493 215.893C86.6468 215.309 89.3115 213.808 91.4763 211.722C94.0575 209.136 95.7228 205.549 96.0558 201.628C96.7219 193.953 93.1415 185.778 86.3139 179.938C79.9858 174.265 71.9094 171.846 64.8319 173.514C64.4156 173.598 64.0824 173.765 63.7493 174.098C63.5828 174.265 63.4163 174.515 63.2498 174.766C62.9167 175.516 63 176.351 63.4163 176.935C62.4171 177.018 61.5014 177.185 60.5855 177.435C59.8361 177.602 59.1698 177.769 58.5869 178.353C58.2539 178.687 57.921 179.187 57.7544 179.854C57.5046 180.772 57.3381 181.69 57.2548 182.607C57.005 182.524 56.7552 182.441 56.5054 182.357C55.756 182.107 54.8402 182.357 54.2574 182.941C54.0076 183.191 53.7577 183.609 53.6745 183.942C51.01 194.036 56.7552 203.713 62.5004 208.969Z" fill="#F2994A"/>
<path d="M62.5838 202.546C67.1633 208.218 73.8242 211.722 80.069 211.722C83.3996 211.722 86.3971 210.554 88.4787 208.385C89.8941 206.884 90.8934 205.048 91.393 202.963C92.8085 196.456 89.3947 189.698 85.6479 185.611C82.3173 181.94 76.9884 178.186 70.9934 177.602C71.6595 178.186 72.2423 178.77 72.8251 179.271L73.1581 179.604C75.0732 181.44 77.1549 183.275 78.2373 185.944C78.9034 187.446 79.5695 189.031 80.1524 190.533C80.8185 192.118 81.4845 193.87 82.2339 195.455L82.4005 195.872C83.8993 199.292 85.4812 202.796 87.9792 205.215C88.3955 205.632 88.6453 206.216 88.6453 206.8C88.6453 207.384 88.3955 207.968 87.9792 208.385C87.1465 209.219 85.8142 209.303 84.8983 208.552C80.6519 204.965 76.0725 201.294 71.493 197.707C68.2457 195.204 64.7485 192.451 61.1681 190.032L60.7519 189.782C59.7527 189.114 58.6702 188.364 57.5878 187.78C57.1715 192.702 58.9202 197.957 62.5838 202.546Z" fill="#F2994A"/>
<path d="M61.8343 185.11C62.4171 185.444 62.9167 185.778 63.333 186.111C66.9966 188.614 70.6602 191.367 73.741 193.786C75.1565 194.871 76.4887 195.955 77.9042 197.04C77.3214 195.621 76.8219 194.287 76.239 192.868C75.6562 191.367 75.0732 189.949 74.4904 188.614C73.3247 185.861 71.0766 183.525 68.5786 181.439C67.9125 181.439 66.2474 181.439 64.8319 181.439C63.7495 181.439 62.8335 182.107 62.5004 183.191C62.2506 184.026 61.8343 185.027 61.8343 185.11Z" fill="#F2994A"/>
<path d="M51.0933 69.8137C51.3431 68.9795 51.7593 68.2287 52.4254 67.5613C53.1748 66.8105 54.0907 66.3934 55.0066 66.1431C55.0899 65.9763 55.09 65.8094 55.09 65.726C55.423 64.5581 55.9225 63.7238 56.6719 62.973C57.8376 61.8051 59.2532 61.4714 60.0026 61.3046C60.0859 61.3046 60.2523 61.2211 60.3356 61.2211C60.4189 60.8875 60.5853 60.5538 60.6686 60.2201C60.9184 59.6361 61.2514 59.1356 61.751 58.7185C62.4171 57.9676 63.2499 57.4671 64.1658 57.3003C72.1591 55.465 81.1516 58.0511 88.229 64.3078C95.7228 70.8148 99.7194 79.8245 98.97 88.4171C98.5537 92.9219 96.6385 97.1765 93.5578 100.263C91.0599 102.766 87.8127 104.518 84.3156 105.185C76.4888 106.77 67.6628 103.934 60.6686 97.5936C52.259 90.0021 48.5121 79.0737 51.0933 69.8137ZM62.5004 95.508C68.8284 101.264 76.7384 103.85 83.6493 102.432C86.6468 101.848 89.3115 100.347 91.4763 98.261C94.0575 95.6749 95.7228 92.0877 96.0558 88.1668C96.7219 80.4919 93.1415 72.3164 86.3139 66.4768C79.9858 60.804 71.9094 58.3848 64.8319 60.0532C64.4156 60.1366 64.0824 60.3035 63.7493 60.6372C63.5828 60.804 63.4163 61.0543 63.2498 61.3046C62.9167 62.0554 63 62.8896 63.4163 63.4736C62.4171 63.557 61.5014 63.7238 60.5855 63.9741C59.8361 64.1409 59.1698 64.3078 58.5869 64.8918C58.2539 65.2255 57.921 65.726 57.7544 66.3934C57.5046 67.311 57.3381 68.2287 57.2548 69.1463C57.005 69.0629 56.7552 68.9795 56.5054 68.8961C55.756 68.6458 54.8402 68.8961 54.2574 69.48C54.0076 69.7303 53.7577 70.1474 53.6745 70.4811C51.01 80.5753 56.7552 90.2524 62.5004 95.508Z" fill="#F2994A"/>
<path d="M62.5838 89.0845C67.1633 94.7572 73.8242 98.261 80.069 98.261C83.3996 98.261 86.3971 97.0931 88.4787 94.9241C89.8941 93.4225 90.8934 91.5872 91.393 89.5016C92.8085 82.9946 89.3947 76.2373 85.6479 72.1496C82.3173 68.479 76.9884 64.7249 70.9934 64.141C71.6595 64.7249 72.2423 65.3089 72.8251 65.8094L73.1581 66.1431C75.0732 67.9784 77.1549 69.8137 78.2373 72.4833C78.9034 73.9849 79.5695 75.5699 80.1524 77.0715C80.8185 78.6566 81.4845 80.4085 82.2339 81.9935L82.4005 82.4106C83.8993 85.831 85.4812 89.3347 87.9792 91.754C88.3955 92.1711 88.6453 92.7551 88.6453 93.3391C88.6453 93.923 88.3955 94.507 87.9792 94.9241C87.1465 95.7583 85.8142 95.8417 84.8983 95.0909C80.6519 91.5037 76.0725 87.8331 71.493 84.2459C68.2457 81.7432 64.7485 78.9903 61.1681 76.571L60.7519 76.3207C59.7527 75.6534 58.6702 74.9025 57.5878 74.3186C57.1715 79.2405 58.9202 84.4962 62.5838 89.0845Z" fill="#F2994A"/>
<path d="M61.8343 71.649C62.4171 71.9827 62.9167 72.3164 63.333 72.6501C66.9966 75.1528 70.6602 77.9058 73.741 80.325C75.1565 81.4095 76.4887 82.494 77.9042 83.5785C77.3214 82.1603 76.8219 80.8256 76.239 79.4074C75.6562 77.9058 75.0732 76.4876 74.4904 75.1528C73.3247 72.3998 71.0766 70.064 68.5786 67.9784C67.9125 67.9784 66.2474 67.9784 64.8319 67.9784C63.7495 67.9784 62.8335 68.6458 62.5004 69.7303C62.2506 70.5645 61.8343 71.5656 61.8343 71.649Z" fill="#F2994A"/>
<path d="M207.629 376.186C207.879 377.021 208.295 377.771 208.961 378.439C209.711 379.19 210.627 379.607 211.543 379.857C211.626 380.024 211.626 380.191 211.626 380.274C211.959 381.442 212.459 382.276 213.208 383.027C214.374 384.195 215.789 384.529 216.539 384.695C216.622 384.695 216.788 384.779 216.872 384.779C216.955 385.113 217.121 385.446 217.205 385.78C217.454 386.364 217.787 386.864 218.287 387.282C218.953 388.032 219.786 388.533 220.702 388.7C228.695 390.535 237.688 387.949 244.765 381.692C252.259 375.185 256.255 366.176 255.506 357.583C255.09 353.078 253.175 348.824 250.094 345.737C247.596 343.234 244.349 341.482 240.852 340.815C233.025 339.23 224.199 342.066 217.205 348.406C208.795 355.998 205.048 366.926 207.629 376.186ZM219.036 350.492C225.364 344.736 233.275 342.15 240.185 343.568C243.183 344.152 245.847 345.653 248.012 347.739C250.593 350.325 252.259 353.912 252.592 357.833C253.258 365.508 249.678 373.684 242.85 379.523C236.522 385.196 228.445 387.615 221.368 385.947C220.952 385.863 220.618 385.697 220.285 385.363C220.119 385.196 219.952 384.946 219.786 384.695C219.453 383.945 219.536 383.11 219.952 382.526C218.953 382.443 218.037 382.276 217.121 382.026C216.372 381.859 215.706 381.692 215.123 381.108C214.79 380.775 214.457 380.274 214.29 379.607C214.041 378.689 213.874 377.771 213.791 376.854C213.541 376.937 213.291 377.021 213.041 377.104C212.292 377.354 211.376 377.104 210.793 376.52C210.543 376.27 210.294 375.853 210.21 375.519C207.546 365.425 213.291 355.748 219.036 350.492Z" fill="#F2994A"/>
<path d="M219.12 356.916C223.699 351.243 230.36 347.739 236.605 347.739C239.936 347.739 242.933 348.907 245.015 351.076C246.43 352.578 247.429 354.413 247.929 356.498C249.344 363.005 245.931 369.763 242.184 373.85C238.853 377.521 233.524 381.275 227.529 381.859C228.196 381.275 228.778 380.691 229.361 380.191L229.694 379.857C231.609 378.022 233.691 376.186 234.773 373.517C235.439 372.015 236.106 370.43 236.688 368.928C237.354 367.343 238.021 365.592 238.77 364.007L238.937 363.589C240.435 360.169 242.017 356.665 244.515 354.246C244.931 353.829 245.181 353.245 245.181 352.661C245.181 352.077 244.931 351.493 244.515 351.076C243.683 350.242 242.35 350.158 241.434 350.909C237.188 354.496 232.608 358.167 228.029 361.754C224.782 364.257 221.284 367.01 217.704 369.429L217.288 369.679C216.289 370.347 215.206 371.097 214.124 371.681C213.707 366.759 215.456 361.504 219.12 356.916Z" fill="#F2994A"/>
<path d="M218.37 374.351C218.953 374.017 219.453 373.684 219.869 373.35C223.533 370.847 227.196 368.094 230.277 365.675C231.692 364.59 233.025 363.506 234.44 362.421C233.857 363.84 233.358 365.174 232.775 366.593C232.192 368.094 231.609 369.512 231.026 370.847C229.861 373.6 227.613 375.936 225.115 378.022C224.449 378.022 222.783 378.022 221.368 378.022C220.285 378.022 219.369 377.354 219.036 376.27C218.787 375.435 218.37 374.434 218.37 374.351Z" fill="#F2994A"/>
<path d="M207.629 262.725C207.879 263.559 208.295 264.31 208.961 264.978C209.711 265.728 210.627 266.146 211.543 266.396C211.626 266.563 211.626 266.729 211.626 266.813C211.959 267.981 212.459 268.815 213.208 269.566C214.374 270.734 215.789 271.068 216.539 271.234C216.622 271.234 216.788 271.318 216.872 271.318C216.955 271.651 217.121 271.985 217.205 272.319C217.454 272.903 217.787 273.403 218.287 273.82C218.953 274.571 219.786 275.072 220.702 275.239C228.695 277.074 237.688 274.488 244.765 268.231C252.259 261.724 256.255 252.714 255.506 244.122C255.09 239.617 253.175 235.362 250.094 232.276C247.596 229.773 244.349 228.021 240.852 227.354C233.025 225.769 224.199 228.605 217.205 234.945C208.795 242.537 205.048 253.465 207.629 262.725ZM219.036 237.031C225.364 231.275 233.275 228.689 240.185 230.107C243.183 230.691 245.847 232.192 248.012 234.278C250.593 236.864 252.259 240.451 252.592 244.372C253.258 252.047 249.678 260.222 242.85 266.062C236.522 271.735 228.445 274.154 221.368 272.486C220.952 272.402 220.618 272.235 220.285 271.902C220.119 271.735 219.952 271.485 219.786 271.234C219.453 270.484 219.536 269.649 219.952 269.065C218.953 268.982 218.037 268.815 217.121 268.565C216.372 268.398 215.706 268.231 215.123 267.647C214.79 267.313 214.457 266.813 214.29 266.146C214.041 265.228 213.874 264.31 213.791 263.393C213.541 263.476 213.291 263.559 213.041 263.643C212.292 263.893 211.376 263.643 210.793 263.059C210.543 262.809 210.294 262.391 210.21 262.058C207.546 251.964 213.291 242.287 219.036 237.031Z" fill="#F2994A"/>
<path d="M219.12 243.454C223.699 237.782 230.36 234.278 236.605 234.278C239.936 234.278 242.933 235.446 245.015 237.615C246.43 239.116 247.429 240.952 247.929 243.037C249.344 249.544 245.931 256.302 242.184 260.389C238.853 264.06 233.524 267.814 227.529 268.398C228.196 267.814 228.778 267.23 229.361 266.729L229.694 266.396C231.609 264.56 233.691 262.725 234.773 260.056C235.439 258.554 236.106 256.969 236.688 255.467C237.354 253.882 238.021 252.13 238.77 250.545L238.937 250.128C240.435 246.708 242.017 243.204 244.515 240.785C244.931 240.368 245.181 239.784 245.181 239.2C245.181 238.616 244.931 238.032 244.515 237.615C243.683 236.781 242.35 236.697 241.434 237.448C237.188 241.035 232.608 244.706 228.029 248.293C224.782 250.796 221.284 253.549 217.704 255.968L217.288 256.218C216.289 256.886 215.206 257.636 214.124 258.22C213.707 253.298 215.456 248.043 219.12 243.454Z" fill="#F2994A"/>
<path d="M218.37 260.89C218.953 260.556 219.453 260.223 219.869 259.889C223.533 257.386 227.196 254.633 230.277 252.214C231.692 251.129 233.025 250.045 234.44 248.96C233.857 250.379 233.358 251.713 232.775 253.132C232.192 254.633 231.609 256.051 231.026 257.386C229.861 260.139 227.613 262.475 225.115 264.561C224.449 264.561 222.783 264.561 221.368 264.561C220.285 264.561 219.369 263.893 219.036 262.809C218.787 261.974 218.37 260.973 218.37 260.89Z" fill="#F2994A"/>
<path d="M207.629 149.264C207.879 150.098 208.295 150.849 208.961 151.517C209.711 152.267 210.627 152.684 211.543 152.935C211.626 153.102 211.626 153.268 211.626 153.352C211.959 154.52 212.459 155.354 213.208 156.105C214.374 157.273 215.789 157.606 216.539 157.773C216.622 157.773 216.788 157.857 216.872 157.857C216.955 158.19 217.121 158.524 217.205 158.858C217.454 159.442 217.787 159.942 218.287 160.359C218.953 161.11 219.786 161.611 220.702 161.778C228.695 163.613 237.688 161.027 244.765 154.77C252.259 148.263 256.255 139.253 255.506 130.661C255.09 126.156 253.175 121.901 250.094 118.815C247.596 116.312 244.349 114.56 240.852 113.893C233.025 112.308 224.199 115.144 217.205 121.484C208.795 129.076 205.048 140.004 207.629 149.264ZM219.036 123.57C225.364 117.814 233.275 115.227 240.185 116.646C243.183 117.23 245.847 118.731 248.012 120.817C250.593 123.403 252.259 126.99 252.592 130.911C253.258 138.586 249.678 146.761 242.85 152.601C236.522 158.274 228.445 160.693 221.368 159.025C220.952 158.941 220.618 158.774 220.285 158.441C220.119 158.274 219.952 158.024 219.786 157.773C219.453 157.022 219.536 156.188 219.952 155.604C218.953 155.521 218.037 155.354 217.121 155.104C216.372 154.937 215.706 154.77 215.123 154.186C214.79 153.852 214.457 153.352 214.29 152.684C214.041 151.767 213.874 150.849 213.791 149.931C213.541 150.015 213.291 150.098 213.041 150.182C212.292 150.432 211.376 150.182 210.793 149.598C210.543 149.348 210.294 148.93 210.21 148.597C207.546 138.503 213.291 128.825 219.036 123.57Z" fill="#F2994A"/>
<path d="M219.12 129.993C223.699 124.321 230.36 120.817 236.605 120.817C239.936 120.817 242.933 121.985 245.015 124.154C246.43 125.655 247.429 127.491 247.929 129.576C249.344 136.083 245.931 142.84 242.184 146.928C238.853 150.599 233.524 154.353 227.529 154.937C228.196 154.353 228.778 153.769 229.361 153.268L229.694 152.935C231.609 151.099 233.691 149.264 234.773 146.595C235.439 145.093 236.106 143.508 236.688 142.006C237.354 140.421 238.021 138.669 238.77 137.084L238.937 136.667C240.435 133.247 242.017 129.743 244.515 127.324C244.931 126.907 245.181 126.323 245.181 125.739C245.181 125.155 244.931 124.571 244.515 124.154C243.683 123.319 242.35 123.236 241.434 123.987C237.188 127.574 232.608 131.245 228.029 134.832C224.782 137.335 221.284 140.088 217.704 142.507L217.288 142.757C216.289 143.424 215.206 144.175 214.124 144.759C213.707 139.837 215.456 134.582 219.12 129.993Z" fill="#F2994A"/>
<path d="M218.37 147.429C218.953 147.095 219.453 146.761 219.869 146.428C223.533 143.925 227.196 141.172 230.277 138.753C231.692 137.668 233.025 136.584 234.44 135.499C233.857 136.917 233.358 138.252 232.775 139.67C232.192 141.172 231.609 142.59 231.026 143.925C229.861 146.678 227.613 149.014 225.115 151.099C224.449 151.099 222.783 151.099 221.368 151.099C220.285 151.099 219.369 150.432 219.036 149.348C218.787 148.513 218.37 147.512 218.37 147.429Z" fill="#F2994A"/>
<path d="M207.629 35.803C207.879 36.6373 208.295 37.3881 208.961 38.0555C209.711 38.8063 210.627 39.2234 211.543 39.4736C211.626 39.6405 211.626 39.8073 211.626 39.8908C211.959 41.0587 212.459 41.8929 213.208 42.6437C214.374 43.8116 215.789 44.1453 216.539 44.3122C216.622 44.3122 216.788 44.3956 216.872 44.3956C216.955 44.7293 217.121 45.063 217.205 45.3967C217.454 45.9807 217.787 46.4812 218.287 46.8983C218.953 47.6491 219.786 48.1497 220.702 48.3165C228.695 50.1518 237.688 47.5657 244.765 41.309C252.259 34.802 256.255 25.7923 255.506 17.1997C255.09 12.6948 253.175 8.44026 250.094 5.35361C247.596 2.85092 244.349 1.09903 240.852 0.431649C233.025 -1.15339 224.199 1.68299 217.205 8.02315C208.795 15.6146 205.048 26.5431 207.629 35.803ZM219.036 10.1087C225.364 4.35253 233.275 1.76642 240.185 3.18461C243.183 3.76857 245.847 5.27019 248.012 7.35577C250.593 9.94188 252.259 13.5291 252.592 17.45C253.258 25.1249 249.678 33.3003 242.85 39.14C236.522 44.8127 228.445 47.232 221.368 45.5635C220.952 45.4801 220.618 45.3133 220.285 44.9796C220.119 44.8127 219.952 44.5625 219.786 44.3122C219.453 43.5614 219.536 42.7271 219.952 42.1432C218.953 42.0598 218.037 41.8929 217.121 41.6427C216.372 41.4758 215.706 41.309 215.123 40.725C214.79 40.3913 214.457 39.8908 214.29 39.2234C214.041 38.3057 213.874 37.3881 213.791 36.4704C213.541 36.5538 213.291 36.6373 213.041 36.7207C212.292 36.971 211.376 36.7207 210.793 36.1367C210.543 35.8865 210.294 35.4693 210.21 35.1357C207.546 25.0415 213.291 15.3644 219.036 10.1087Z" fill="#F2994A"/>
<path d="M219.12 16.5323C223.699 10.8595 230.36 7.35575 236.605 7.35575C239.936 7.35575 242.933 8.52367 245.015 10.6927C246.43 12.1943 247.429 14.0296 247.929 16.1152C249.344 22.6222 245.931 29.3794 242.184 33.4672C238.853 37.1378 233.524 40.8918 227.529 41.4758C228.196 40.8918 228.778 40.3079 229.361 39.8073L229.694 39.4736C231.609 37.6383 233.691 35.803 234.773 33.1335C235.439 31.6319 236.106 30.0468 236.688 28.5452C237.354 26.9602 238.021 25.2083 238.77 23.6233L238.937 23.2061C240.435 19.7858 242.017 16.282 244.515 13.8628C244.931 13.4456 245.181 12.8617 245.181 12.2777C245.181 11.6938 244.931 11.1098 244.515 10.6927C243.683 9.85844 242.35 9.77502 241.434 10.5258C237.188 14.113 232.608 17.7836 228.029 21.3708C224.782 23.8735 221.284 26.6265 217.704 29.0458L217.288 29.296C216.289 29.9634 215.206 30.7142 214.124 31.2982C213.707 26.3762 215.456 21.1206 219.12 16.5323Z" fill="#F2994A"/>
<path d="M218.37 33.9677C218.953 33.634 219.453 33.3004 219.869 32.9667C223.533 30.464 227.196 27.711 230.277 25.2917C231.692 24.2072 233.025 23.1227 234.44 22.0382C233.857 23.4564 233.358 24.7912 232.775 26.2094C232.192 27.711 231.609 29.1292 231.026 30.464C229.861 33.2169 227.613 35.5528 225.115 37.6384C224.449 37.6384 222.783 37.6384 221.368 37.6384C220.285 37.6384 219.369 36.971 219.036 35.8865C218.787 35.0522 218.37 34.0512 218.37 33.9677Z" fill="#F2994A"/>
<path d="M-2.19565 376.186C-1.94586 377.021 -1.52948 377.771 -0.863372 378.439C-0.113998 379.19 0.801903 379.607 1.7178 379.857C1.80107 380.024 1.80118 380.191 1.80118 380.274C2.13423 381.442 2.63371 382.276 3.38309 383.027C4.54878 384.195 5.9644 384.529 6.71378 384.695C6.79704 384.695 6.96352 384.779 7.04678 384.779C7.13005 385.113 7.29653 385.446 7.37979 385.78C7.62958 386.364 7.96261 386.864 8.46219 387.282C9.1283 388.032 9.96108 388.533 10.877 388.7C18.8703 390.535 27.8628 387.949 34.9402 381.692C42.434 375.185 46.4306 366.176 45.6812 357.583C45.2649 353.078 43.3497 348.824 40.269 345.737C37.771 343.234 34.5238 341.482 31.0268 340.815C23.2 339.23 14.374 342.066 7.37979 348.406C-1.02985 355.998 -4.77682 366.926 -2.19565 376.186ZM9.21158 350.492C15.5396 344.736 23.4497 342.15 30.3606 343.568C33.3581 344.152 36.0225 345.653 38.1874 347.739C40.7686 350.325 42.4339 353.912 42.767 357.833C43.4331 365.508 39.8527 373.684 33.0251 379.523C26.697 385.196 18.6204 387.615 11.543 385.947C11.1267 385.863 10.7935 385.697 10.4605 385.363C10.294 385.196 10.1275 384.946 9.96097 384.695C9.62791 383.945 9.71115 383.11 10.1275 382.526C9.12831 382.443 8.21244 382.276 7.29654 382.026C6.54717 381.859 5.88097 381.692 5.29813 381.108C4.96507 380.775 4.63214 380.274 4.46561 379.607C4.21582 378.689 4.04924 377.771 3.96597 376.854C3.71618 376.937 3.46638 377.021 3.21658 377.104C2.46721 377.354 1.55126 377.104 0.968415 376.52C0.718624 376.27 0.468793 375.853 0.385529 375.519C-2.27891 365.425 3.46638 355.748 9.21158 350.492Z" fill="#F2994A"/>
<path d="M9.29495 356.916C13.8745 351.243 20.5354 347.739 26.7802 347.739C30.1107 347.739 33.1083 348.907 35.1898 351.076C36.6053 352.578 37.6045 354.413 38.104 356.498C39.5195 363.005 36.1059 369.763 32.359 373.85C29.0285 377.521 23.6996 381.275 17.7046 381.859C18.3707 381.275 18.9534 380.691 19.5363 380.191L19.8693 379.857C21.7844 378.022 23.8661 376.186 24.9485 373.517C25.6146 372.015 26.2807 370.43 26.8636 368.928C27.5297 367.343 28.1957 365.592 28.9451 364.007L29.1117 363.589C30.6105 360.169 32.1924 356.665 34.6903 354.246C35.1067 353.829 35.3565 353.245 35.3565 352.661C35.3565 352.077 35.1067 351.493 34.6903 351.076C33.8577 350.242 32.5254 350.158 31.6095 350.909C27.3631 354.496 22.7835 358.167 18.204 361.754C14.9567 364.257 11.4596 367.01 7.8793 369.429L7.46304 369.679C6.46388 370.347 5.38141 371.097 4.29898 371.681C3.88266 366.759 5.63135 361.504 9.29495 356.916Z" fill="#F2994A"/>
<path d="M8.54544 374.351C9.12829 374.017 9.6279 373.684 10.0442 373.35C13.7078 370.847 17.3714 368.094 20.4522 365.675C21.8677 364.59 23.1999 363.506 24.6154 362.421C24.0325 363.84 23.5331 365.174 22.9502 366.593C22.3674 368.094 21.7844 369.512 21.2016 370.847C20.0359 373.6 17.7877 375.936 15.2898 378.022C14.6237 378.022 12.9585 378.022 11.543 378.022C10.4606 378.022 9.54463 377.354 9.21158 376.27C8.96179 375.435 8.54544 374.434 8.54544 374.351Z" fill="#F2994A"/>
<path d="M-2.19565 262.725C-1.94586 263.559 -1.52948 264.31 -0.863372 264.978C-0.113998 265.728 0.801903 266.146 1.7178 266.396C1.80107 266.563 1.80118 266.729 1.80118 266.813C2.13423 267.981 2.63371 268.815 3.38309 269.566C4.54878 270.734 5.9644 271.068 6.71378 271.234C6.79704 271.234 6.96352 271.318 7.04678 271.318C7.13005 271.651 7.29653 271.985 7.37979 272.319C7.62958 272.903 7.96261 273.403 8.46219 273.82C9.1283 274.571 9.96108 275.072 10.877 275.239C18.8703 277.074 27.8628 274.488 34.9402 268.231C42.434 261.724 46.4306 252.714 45.6812 244.122C45.2649 239.617 43.3497 235.362 40.269 232.276C37.771 229.773 34.5238 228.021 31.0268 227.354C23.2 225.769 14.374 228.605 7.37979 234.945C-1.02985 242.537 -4.77682 253.465 -2.19565 262.725ZM9.21158 237.031C15.5396 231.275 23.4497 228.689 30.3606 230.107C33.3581 230.691 36.0225 232.192 38.1874 234.278C40.7686 236.864 42.4339 240.451 42.767 244.372C43.4331 252.047 39.8527 260.222 33.0251 266.062C26.697 271.735 18.6204 274.154 11.543 272.486C11.1267 272.402 10.7935 272.235 10.4605 271.902C10.294 271.735 10.1275 271.485 9.96097 271.234C9.62791 270.484 9.71115 269.649 10.1275 269.065C9.12831 268.982 8.21244 268.815 7.29654 268.565C6.54717 268.398 5.88097 268.231 5.29813 267.647C4.96507 267.313 4.63214 266.813 4.46561 266.146C4.21582 265.228 4.04924 264.31 3.96597 263.393C3.71618 263.476 3.46638 263.559 3.21658 263.643C2.46721 263.893 1.55126 263.643 0.968415 263.059C0.718624 262.809 0.468793 262.391 0.385529 262.058C-2.27891 251.964 3.46638 242.287 9.21158 237.031Z" fill="#F2994A"/>
<path d="M9.29495 243.454C13.8745 237.782 20.5354 234.278 26.7802 234.278C30.1107 234.278 33.1083 235.446 35.1898 237.615C36.6053 239.116 37.6045 240.952 38.104 243.037C39.5195 249.544 36.1059 256.302 32.359 260.389C29.0285 264.06 23.6996 267.814 17.7046 268.398C18.3707 267.814 18.9534 267.23 19.5363 266.729L19.8693 266.396C21.7844 264.56 23.8661 262.725 24.9485 260.056C25.6146 258.554 26.2807 256.969 26.8636 255.467C27.5297 253.882 28.1957 252.13 28.9451 250.545L29.1117 250.128C30.6105 246.708 32.1924 243.204 34.6903 240.785C35.1067 240.368 35.3565 239.784 35.3565 239.2C35.3565 238.616 35.1067 238.032 34.6903 237.615C33.8577 236.781 32.5254 236.697 31.6095 237.448C27.3631 241.035 22.7835 244.706 18.204 248.293C14.9567 250.796 11.4596 253.549 7.8793 255.968L7.46304 256.218C6.46388 256.886 5.38141 257.636 4.29898 258.22C3.88266 253.298 5.63135 248.043 9.29495 243.454Z" fill="#F2994A"/>
<path d="M8.54544 260.89C9.12829 260.556 9.6279 260.223 10.0442 259.889C13.7078 257.386 17.3714 254.633 20.4522 252.214C21.8677 251.129 23.1999 250.045 24.6154 248.96C24.0325 250.379 23.5331 251.713 22.9502 253.132C22.3674 254.633 21.7844 256.051 21.2016 257.386C20.0359 260.139 17.7877 262.475 15.2898 264.561C14.6237 264.561 12.9585 264.561 11.543 264.561C10.4606 264.561 9.54463 263.893 9.21158 262.809C8.96179 261.974 8.54544 260.973 8.54544 260.89Z" fill="#F2994A"/>
<path d="M-2.19565 149.264C-1.94586 150.098 -1.52948 150.849 -0.863372 151.517C-0.113998 152.267 0.801903 152.684 1.7178 152.935C1.80107 153.102 1.80118 153.268 1.80118 153.352C2.13423 154.52 2.63371 155.354 3.38309 156.105C4.54878 157.273 5.9644 157.606 6.71378 157.773C6.79704 157.773 6.96352 157.857 7.04678 157.857C7.13005 158.19 7.29653 158.524 7.37979 158.858C7.62958 159.442 7.96261 159.942 8.46219 160.359C9.1283 161.11 9.96108 161.611 10.877 161.778C18.8703 163.613 27.8628 161.027 34.9402 154.77C42.434 148.263 46.4306 139.253 45.6812 130.661C45.2649 126.156 43.3497 121.901 40.269 118.815C37.771 116.312 34.5238 114.56 31.0268 113.893C23.2 112.308 14.374 115.144 7.37979 121.484C-1.02985 129.076 -4.77682 140.004 -2.19565 149.264ZM9.21158 123.57C15.5396 117.814 23.4497 115.227 30.3606 116.646C33.3581 117.23 36.0225 118.731 38.1874 120.817C40.7686 123.403 42.4339 126.99 42.767 130.911C43.4331 138.586 39.8527 146.761 33.0251 152.601C26.697 158.274 18.6204 160.693 11.543 159.025C11.1267 158.941 10.7935 158.774 10.4605 158.441C10.294 158.274 10.1275 158.024 9.96097 157.773C9.62791 157.022 9.71115 156.188 10.1275 155.604C9.12831 155.521 8.21244 155.354 7.29654 155.104C6.54717 154.937 5.88097 154.77 5.29813 154.186C4.96507 153.852 4.63214 153.352 4.46561 152.684C4.21582 151.767 4.04924 150.849 3.96597 149.931C3.71618 150.015 3.46638 150.098 3.21658 150.182C2.46721 150.432 1.55126 150.182 0.968415 149.598C0.718624 149.348 0.468793 148.93 0.385529 148.597C-2.27891 138.503 3.46638 128.825 9.21158 123.57Z" fill="#F2994A"/>
<path d="M9.29495 129.993C13.8745 124.321 20.5354 120.817 26.7802 120.817C30.1107 120.817 33.1083 121.985 35.1898 124.154C36.6053 125.655 37.6045 127.491 38.104 129.576C39.5195 136.083 36.1059 142.84 32.359 146.928C29.0285 150.599 23.6996 154.353 17.7046 154.937C18.3707 154.353 18.9534 153.769 19.5363 153.268L19.8693 152.935C21.7844 151.099 23.8661 149.264 24.9485 146.595C25.6146 145.093 26.2807 143.508 26.8636 142.006C27.5297 140.421 28.1957 138.669 28.9451 137.084L29.1117 136.667C30.6105 133.247 32.1924 129.743 34.6903 127.324C35.1067 126.907 35.3565 126.323 35.3565 125.739C35.3565 125.155 35.1067 124.571 34.6903 124.154C33.8577 123.319 32.5254 123.236 31.6095 123.987C27.3631 127.574 22.7835 131.245 18.204 134.832C14.9567 137.335 11.4596 140.088 7.8793 142.507L7.46304 142.757C6.46388 143.424 5.38141 144.175 4.29898 144.759C3.88266 139.837 5.63135 134.582 9.29495 129.993Z" fill="#F2994A"/>
<path d="M8.54544 147.429C9.12829 147.095 9.6279 146.761 10.0442 146.428C13.7078 143.925 17.3714 141.172 20.4522 138.753C21.8677 137.668 23.1999 136.584 24.6154 135.499C24.0325 136.917 23.5331 138.252 22.9502 139.67C22.3674 141.172 21.7844 142.59 21.2016 143.925C20.0359 146.678 17.7877 149.014 15.2898 151.099C14.6237 151.099 12.9585 151.099 11.543 151.099C10.4606 151.099 9.54463 150.432 9.21158 149.348C8.96179 148.513 8.54544 147.512 8.54544 147.429Z" fill="#F2994A"/>
<path d="M-2.19565 35.803C-1.94586 36.6373 -1.52948 37.3881 -0.863372 38.0555C-0.113998 38.8063 0.801903 39.2234 1.7178 39.4736C1.80107 39.6405 1.80118 39.8073 1.80118 39.8908C2.13423 41.0587 2.63371 41.8929 3.38309 42.6437C4.54878 43.8116 5.9644 44.1453 6.71378 44.3122C6.79704 44.3122 6.96352 44.3956 7.04678 44.3956C7.13005 44.7293 7.29653 45.063 7.37979 45.3967C7.62958 45.9807 7.96261 46.4812 8.46219 46.8983C9.1283 47.6491 9.96108 48.1497 10.877 48.3165C18.8703 50.1518 27.8628 47.5657 34.9402 41.309C42.434 34.802 46.4306 25.7923 45.6812 17.1997C45.2649 12.6948 43.3497 8.44026 40.269 5.35361C37.771 2.85092 34.5238 1.09903 31.0268 0.431649C23.2 -1.15339 14.374 1.68299 7.37979 8.02315C-1.02985 15.6146 -4.77682 26.5431 -2.19565 35.803ZM9.21158 10.1087C15.5396 4.35253 23.4497 1.76642 30.3606 3.18461C33.3581 3.76857 36.0225 5.27019 38.1874 7.35577C40.7686 9.94188 42.4339 13.5291 42.767 17.45C43.4331 25.1249 39.8527 33.3003 33.0251 39.14C26.697 44.8127 18.6204 47.232 11.543 45.5635C11.1267 45.4801 10.7935 45.3133 10.4605 44.9796C10.294 44.8127 10.1275 44.5625 9.96097 44.3122C9.62791 43.5614 9.71115 42.7271 10.1275 42.1432C9.12831 42.0598 8.21244 41.8929 7.29654 41.6427C6.54717 41.4758 5.88097 41.309 5.29813 40.725C4.96507 40.3913 4.63214 39.8908 4.46561 39.2234C4.21582 38.3057 4.04924 37.3881 3.96597 36.4704C3.71618 36.5538 3.46638 36.6373 3.21658 36.7207C2.46721 36.971 1.55126 36.7207 0.968415 36.1367C0.718624 35.8865 0.468793 35.4693 0.385529 35.1357C-2.27891 25.0415 3.46638 15.3644 9.21158 10.1087Z" fill="#F2994A"/>
<path d="M9.29495 16.5323C13.8745 10.8595 20.5354 7.35575 26.7802 7.35575C30.1107 7.35575 33.1083 8.52367 35.1898 10.6927C36.6053 12.1943 37.6045 14.0296 38.104 16.1152C39.5195 22.6222 36.1059 29.3794 32.359 33.4672C29.0285 37.1378 23.6996 40.8918 17.7046 41.4758C18.3707 40.8918 18.9534 40.3079 19.5363 39.8073L19.8693 39.4736C21.7844 37.6383 23.8661 35.803 24.9485 33.1335C25.6146 31.6319 26.2807 30.0468 26.8636 28.5452C27.5297 26.9602 28.1957 25.2083 28.9451 23.6233L29.1117 23.2061C30.6105 19.7858 32.1924 16.282 34.6903 13.8628C35.1067 13.4456 35.3565 12.8617 35.3565 12.2777C35.3565 11.6938 35.1067 11.1098 34.6903 10.6927C33.8577 9.85844 32.5254 9.77502 31.6095 10.5258C27.3631 14.113 22.7835 17.7836 18.204 21.3708C14.9567 23.8735 11.4596 26.6265 7.8793 29.0458L7.46304 29.296C6.46388 29.9634 5.38141 30.7142 4.29898 31.2982C3.88266 26.3762 5.63135 21.1206 9.29495 16.5323Z" fill="#F2994A"/>
<path d="M8.54544 33.9677C9.12829 33.634 9.6279 33.3004 10.0442 32.9667C13.7078 30.464 17.3714 27.711 20.4522 25.2917C21.8677 24.2072 23.1999 23.1227 24.6154 22.0382C24.0325 23.4564 23.5331 24.7912 22.9502 26.2094C22.3674 27.711 21.7844 29.1292 21.2016 30.464C20.0359 33.2169 17.7877 35.5528 15.2898 37.6384C14.6237 37.6384 12.9585 37.6384 11.543 37.6384C10.4606 37.6384 9.54463 36.971 9.21158 35.8865C8.96179 35.0522 8.54544 34.0512 8.54544 33.9677Z" fill="#F2994A"/>
<path d="M415.484 432.908C415.234 433.742 414.818 434.493 414.152 435.161C413.403 435.911 412.487 436.329 411.571 436.579C411.487 436.746 411.487 436.913 411.487 436.996C411.154 438.164 410.655 438.998 409.905 439.749C408.74 440.917 407.324 441.251 406.575 441.417C406.491 441.417 406.325 441.501 406.242 441.501C406.158 441.835 405.992 442.168 405.909 442.502C405.659 443.086 405.326 443.586 404.826 444.004C404.16 444.754 403.327 445.255 402.412 445.422C394.418 447.257 385.426 444.671 378.348 438.414C370.855 431.907 366.858 422.898 367.607 414.305C368.024 409.8 369.939 405.545 373.02 402.459C375.517 399.956 378.765 398.204 382.262 397.537C390.089 395.952 398.915 398.788 405.909 405.128C414.318 412.72 418.065 423.648 415.484 432.908ZM404.077 407.214C397.749 401.458 389.839 398.872 382.928 400.29C379.93 400.874 377.266 402.375 375.101 404.461C372.52 407.047 370.855 410.634 370.522 414.555C369.855 422.23 373.436 430.406 380.263 436.245C386.591 441.918 394.668 444.337 401.745 442.669C402.162 442.585 402.495 442.419 402.828 442.085C402.995 441.918 403.161 441.668 403.327 441.417C403.66 440.667 403.577 439.832 403.161 439.248C404.16 439.165 405.076 438.998 405.992 438.748C406.741 438.581 407.408 438.414 407.99 437.83C408.323 437.497 408.656 436.996 408.823 436.329C409.073 435.411 409.239 434.493 409.323 433.576C409.572 433.659 409.822 433.742 410.072 433.826C410.821 434.076 411.737 433.826 412.32 433.242C412.57 432.992 412.82 432.575 412.903 432.241C415.567 422.147 409.822 412.47 404.077 407.214Z" fill="#F2994A"/>
<path d="M403.994 413.638C399.414 407.965 392.753 404.461 386.508 404.461C383.178 404.461 380.18 405.629 378.099 407.798C376.683 409.3 375.684 411.135 375.184 413.22C373.769 419.727 377.183 426.485 380.929 430.572C384.26 434.243 389.589 437.997 395.584 438.581C394.918 437.997 394.335 437.413 393.752 436.913L393.419 436.579C391.504 434.744 389.422 432.908 388.34 430.239C387.674 428.737 387.008 427.152 386.425 425.65C385.759 424.065 385.093 422.314 384.343 420.728L384.177 420.311C382.678 416.891 381.096 413.387 378.598 410.968C378.182 410.551 377.932 409.967 377.932 409.383C377.932 408.799 378.182 408.215 378.598 407.798C379.431 406.964 380.763 406.88 381.679 407.631C385.925 411.218 390.505 414.889 395.084 418.476C398.332 420.979 401.829 423.732 405.409 426.151L405.825 426.401C406.825 427.069 407.907 427.819 408.99 428.403C409.406 423.481 407.657 418.226 403.994 413.638Z" fill="#F2994A"/>
<path d="M404.743 431.073C404.16 430.739 403.661 430.406 403.244 430.072C399.581 427.569 395.917 424.816 392.836 422.397C391.421 421.312 390.089 420.228 388.673 419.143C389.256 420.562 389.755 421.896 390.338 423.315C390.921 424.816 391.504 426.234 392.087 427.569C393.253 430.322 395.501 432.658 397.999 434.744C398.665 434.744 400.33 434.744 401.745 434.744C402.828 434.744 403.744 434.076 404.077 432.992C404.327 432.157 404.743 431.156 404.743 431.073Z" fill="#F2994A"/>
<path d="M415.484 319.447C415.234 320.281 414.818 321.032 414.152 321.7C413.403 322.45 412.487 322.868 411.571 323.118C411.487 323.285 411.487 323.451 411.487 323.535C411.154 324.703 410.655 325.537 409.905 326.288C408.74 327.456 407.324 327.789 406.575 327.956C406.491 327.956 406.325 328.04 406.242 328.04C406.158 328.373 405.992 328.707 405.909 329.041C405.659 329.625 405.326 330.125 404.826 330.542C404.16 331.293 403.327 331.794 402.412 331.961C394.418 333.796 385.426 331.21 378.348 324.953C370.855 318.446 366.858 309.436 367.607 300.844C368.024 296.339 369.939 292.084 373.02 288.998C375.517 286.495 378.765 284.743 382.262 284.076C390.089 282.491 398.915 285.327 405.909 291.667C414.318 299.259 418.065 310.187 415.484 319.447ZM404.077 293.753C397.749 287.997 389.839 285.411 382.928 286.829C379.93 287.413 377.266 288.914 375.101 291C372.52 293.586 370.855 297.173 370.522 301.094C369.855 308.769 373.436 316.944 380.263 322.784C386.591 328.457 394.668 330.876 401.745 329.208C402.162 329.124 402.495 328.957 402.828 328.624C402.995 328.457 403.161 328.207 403.327 327.956C403.66 327.206 403.577 326.371 403.161 325.787C404.16 325.704 405.076 325.537 405.992 325.287C406.741 325.12 407.408 324.953 407.99 324.369C408.323 324.035 408.656 323.535 408.823 322.868C409.073 321.95 409.239 321.032 409.323 320.115C409.572 320.198 409.822 320.281 410.072 320.365C410.821 320.615 411.737 320.365 412.32 319.781C412.57 319.531 412.82 319.113 412.903 318.78C415.567 308.686 409.822 299.009 404.077 293.753Z" fill="#F2994A"/>
<path d="M403.994 300.176C399.414 294.504 392.753 291 386.508 291C383.178 291 380.18 292.168 378.099 294.337C376.683 295.838 375.684 297.674 375.184 299.759C373.769 306.266 377.183 313.024 380.929 317.111C384.26 320.782 389.589 324.536 395.584 325.12C394.918 324.536 394.335 323.952 393.752 323.451L393.419 323.118C391.504 321.283 389.422 319.447 388.34 316.778C387.674 315.276 387.008 313.691 386.425 312.189C385.759 310.604 385.093 308.852 384.343 307.267L384.177 306.85C382.678 303.43 381.096 299.926 378.598 297.507C378.182 297.09 377.932 296.506 377.932 295.922C377.932 295.338 378.182 294.754 378.598 294.337C379.431 293.503 380.763 293.419 381.679 294.17C385.925 297.757 390.505 301.428 395.084 305.015C398.332 307.518 401.829 310.271 405.409 312.69L405.825 312.94C406.825 313.608 407.907 314.358 408.99 314.942C409.406 310.02 407.657 304.765 403.994 300.176Z" fill="#F2994A"/>
<path d="M404.743 317.612C404.16 317.278 403.661 316.944 403.244 316.611C399.581 314.108 395.917 311.355 392.836 308.936C391.421 307.851 390.089 306.767 388.673 305.682C389.256 307.101 389.755 308.435 390.338 309.854C390.921 311.355 391.504 312.773 392.087 314.108C393.253 316.861 395.501 319.197 397.999 321.283C398.665 321.283 400.33 321.283 401.745 321.283C402.828 321.283 403.744 320.615 404.077 319.531C404.327 318.696 404.743 317.695 404.743 317.612Z" fill="#F2994A"/>
<path d="M415.484 205.986C415.234 206.82 414.818 207.571 414.152 208.239C413.403 208.989 412.487 209.406 411.571 209.657C411.487 209.824 411.487 209.99 411.487 210.074C411.154 211.242 410.655 212.076 409.905 212.827C408.74 213.995 407.324 214.328 406.575 214.495C406.491 214.495 406.325 214.579 406.242 214.579C406.158 214.912 405.992 215.246 405.909 215.58C405.659 216.164 405.326 216.664 404.826 217.081C404.16 217.832 403.327 218.333 402.412 218.5C394.418 220.335 385.426 217.749 378.348 211.492C370.855 204.985 366.858 195.975 367.607 187.383C368.024 182.878 369.939 178.623 373.02 175.537C375.517 173.034 378.765 171.282 382.262 170.615C390.089 169.03 398.915 171.866 405.909 178.206C414.318 185.798 418.065 196.726 415.484 205.986ZM404.077 180.292C397.749 174.536 389.839 171.949 382.928 173.368C379.93 173.952 377.266 175.453 375.101 177.539C372.52 180.125 370.855 183.712 370.522 187.633C369.855 195.308 373.436 203.483 380.263 209.323C386.591 214.996 394.668 217.415 401.745 215.747C402.162 215.663 402.495 215.496 402.828 215.163C402.995 214.996 403.161 214.745 403.327 214.495C403.66 213.744 403.577 212.91 403.161 212.326C404.16 212.243 405.076 212.076 405.992 211.826C406.741 211.659 407.408 211.492 407.99 210.908C408.323 210.574 408.656 210.074 408.823 209.406C409.073 208.489 409.239 207.571 409.323 206.653C409.572 206.737 409.822 206.82 410.072 206.904C410.821 207.154 411.737 206.904 412.32 206.32C412.57 206.069 412.82 205.652 412.903 205.319C415.567 195.225 409.822 185.547 404.077 180.292Z" fill="#F2994A"/>
<path d="M403.994 186.715C399.414 181.043 392.753 177.539 386.508 177.539C383.178 177.539 380.18 178.707 378.099 180.876C376.683 182.377 375.684 184.213 375.184 186.298C373.769 192.805 377.183 199.562 380.929 203.65C384.26 207.321 389.589 211.075 395.584 211.659C394.918 211.075 394.335 210.491 393.752 209.99L393.419 209.657C391.504 207.821 389.422 205.986 388.34 203.317C387.674 201.815 387.008 200.23 386.425 198.728C385.759 197.143 385.093 195.391 384.343 193.806L384.177 193.389C382.678 189.969 381.096 186.465 378.598 184.046C378.182 183.629 377.932 183.045 377.932 182.461C377.932 181.877 378.182 181.293 378.598 180.876C379.431 180.041 380.763 179.958 381.679 180.709C385.925 184.296 390.505 187.967 395.084 191.554C398.332 194.057 401.829 196.81 405.409 199.229L405.825 199.479C406.825 200.146 407.907 200.897 408.99 201.481C409.406 196.559 407.657 191.304 403.994 186.715Z" fill="#F2994A"/>
<path d="M404.743 204.151C404.16 203.817 403.661 203.483 403.244 203.15C399.581 200.647 395.917 197.894 392.836 195.475C391.421 194.39 390.089 193.306 388.673 192.221C389.256 193.639 389.755 194.974 390.338 196.392C390.921 197.894 391.504 199.312 392.087 200.647C393.253 203.4 395.501 205.736 397.999 207.821C398.665 207.821 400.33 207.821 401.745 207.821C402.828 207.821 403.744 207.154 404.077 206.07C404.327 205.235 404.743 204.234 404.743 204.151Z" fill="#F2994A"/>
<path d="M415.484 92.525C415.234 93.3593 414.818 94.1101 414.152 94.7775C413.403 95.5283 412.487 95.9454 411.571 96.1956C411.487 96.3625 411.487 96.5293 411.487 96.6128C411.154 97.7807 410.655 98.6149 409.905 99.3657C408.74 100.534 407.324 100.867 406.575 101.034C406.491 101.034 406.325 101.118 406.242 101.118C406.158 101.451 405.992 101.785 405.909 102.119C405.659 102.703 405.326 103.203 404.826 103.62C404.16 104.371 403.327 104.872 402.412 105.038C394.418 106.874 385.426 104.288 378.348 98.031C370.855 91.5239 366.858 82.5143 367.607 73.9217C368.024 69.4168 369.939 65.1623 373.02 62.0756C375.517 59.5729 378.765 57.821 382.262 57.1536C390.089 55.5686 398.915 58.405 405.909 64.7451C414.318 72.3366 418.065 83.2651 415.484 92.525ZM404.077 66.8307C397.749 61.0745 389.839 58.4884 382.928 59.9066C379.93 60.4906 377.266 61.9922 375.101 64.0778C372.52 66.6639 370.855 70.2511 370.522 74.172C369.855 81.8469 373.436 90.0223 380.263 95.862C386.591 101.535 394.668 103.954 401.745 102.286C402.162 102.202 402.495 102.035 402.828 101.702C402.995 101.535 403.161 101.284 403.327 101.034C403.66 100.283 403.577 99.4491 403.161 98.8652C404.16 98.7818 405.076 98.6149 405.992 98.3646C406.741 98.1978 407.408 98.0309 407.99 97.447C408.323 97.1133 408.656 96.6128 408.823 95.9454C409.073 95.0277 409.239 94.1101 409.323 93.1924C409.572 93.2758 409.822 93.3593 410.072 93.4427C410.821 93.693 411.737 93.4427 412.32 92.8587C412.57 92.6085 412.82 92.1913 412.903 91.8576C415.567 81.7635 409.822 72.0864 404.077 66.8307Z" fill="#F2994A"/>
<path d="M403.994 73.2543C399.414 67.5815 392.753 64.0777 386.508 64.0777C383.178 64.0777 380.18 65.2457 378.099 67.4147C376.683 68.9163 375.684 70.7516 375.184 72.8372C373.769 79.3442 377.183 86.1014 380.929 90.1892C384.26 93.8598 389.589 97.6138 395.584 98.1978C394.918 97.6138 394.335 97.0299 393.752 96.5293L393.419 96.1956C391.504 94.3603 389.422 92.525 388.34 89.8555C387.674 88.3539 387.008 86.7688 386.425 85.2672C385.759 83.6822 385.093 81.9303 384.343 80.3452L384.177 79.9281C382.678 76.5078 381.096 73.004 378.598 70.5847C378.182 70.1676 377.932 69.5837 377.932 68.9997C377.932 68.4157 378.182 67.8318 378.598 67.4147C379.431 66.5804 380.763 66.497 381.679 67.2478C385.925 70.835 390.505 74.5056 395.084 78.0928C398.332 80.5955 401.829 83.3485 405.409 85.7677L405.825 86.018C406.825 86.6854 407.907 87.4362 408.99 88.0202C409.406 83.0982 407.657 77.8426 403.994 73.2543Z" fill="#F2994A"/>
<path d="M404.743 90.6897C404.16 90.356 403.661 90.0223 403.244 89.6887C399.581 87.186 395.917 84.433 392.836 82.0137C391.421 80.9292 390.089 79.8447 388.673 78.7602C389.256 80.1784 389.755 81.5132 390.338 82.9314C390.921 84.433 391.504 85.8512 392.087 87.186C393.253 89.9389 395.501 92.2748 397.999 94.3603C398.665 94.3603 400.33 94.3603 401.745 94.3603C402.828 94.3603 403.744 93.693 404.077 92.6085C404.327 91.7742 404.743 90.7731 404.743 90.6897Z" fill="#F2994A"/>
<path d="M205.659 432.908C205.41 433.742 204.993 434.493 204.327 435.161C203.578 435.911 202.662 436.329 201.746 436.579C201.663 436.746 201.663 436.913 201.663 436.996C201.33 438.164 200.83 438.998 200.081 439.749C198.915 440.917 197.5 441.251 196.75 441.417C196.667 441.417 196.5 441.501 196.417 441.501C196.334 441.835 196.167 442.168 196.084 442.502C195.834 443.086 195.501 443.586 195.002 444.004C194.336 444.754 193.503 445.255 192.587 445.422C184.594 447.257 175.601 444.671 168.524 438.414C161.03 431.907 157.033 422.898 157.783 414.305C158.199 409.8 160.114 405.545 163.195 402.459C165.693 399.956 168.94 398.204 172.437 397.537C180.264 395.952 189.09 398.788 196.084 405.128C204.494 412.72 208.241 423.648 205.659 432.908ZM194.252 407.214C187.924 401.458 180.014 398.872 173.103 400.29C170.106 400.874 167.441 402.375 165.276 404.461C162.695 407.047 161.03 410.634 160.697 414.555C160.031 422.23 163.611 430.406 170.439 436.245C176.767 441.918 184.843 444.337 191.921 442.669C192.337 442.585 192.67 442.419 193.003 442.085C193.17 441.918 193.336 441.668 193.503 441.417C193.836 440.667 193.753 439.832 193.336 439.248C194.335 439.165 195.251 438.998 196.167 438.748C196.917 438.581 197.583 438.414 198.166 437.83C198.499 437.497 198.832 436.996 198.998 436.329C199.248 435.411 199.415 434.493 199.498 433.576C199.748 433.659 199.997 433.742 200.247 433.826C200.997 434.076 201.913 433.826 202.495 433.242C202.745 432.992 202.995 432.575 203.078 432.241C205.743 422.147 199.998 412.47 194.252 407.214Z" fill="#F2994A"/>
<path d="M194.169 413.638C189.589 407.965 182.928 404.461 176.684 404.461C173.353 404.461 170.356 405.629 168.274 407.798C166.858 409.3 165.859 411.135 165.36 413.22C163.944 419.727 167.358 426.485 171.105 430.572C174.435 434.243 179.764 437.997 185.759 438.581C185.093 437.997 184.51 437.413 183.928 436.913L183.595 436.579C181.679 434.744 179.598 432.908 178.515 430.239C177.849 428.737 177.183 427.152 176.6 425.65C175.934 424.065 175.268 422.314 174.519 420.728L174.352 420.311C172.853 416.891 171.271 413.387 168.773 410.968C168.357 410.551 168.107 409.967 168.107 409.383C168.107 408.799 168.357 408.215 168.773 407.798C169.606 406.964 170.938 406.88 171.854 407.631C176.101 411.218 180.68 414.889 185.26 418.476C188.507 420.979 192.004 423.732 195.585 426.151L196.001 426.401C197 427.069 198.082 427.819 199.165 428.403C199.581 423.481 197.832 418.226 194.169 413.638Z" fill="#F2994A"/>
<path d="M194.918 431.073C194.336 430.739 193.836 430.406 193.42 430.072C189.756 427.569 186.092 424.816 183.012 422.397C181.596 421.312 180.264 420.228 178.848 419.143C179.431 420.562 179.931 421.896 180.514 423.315C181.097 424.816 181.679 426.234 182.262 427.569C183.428 430.322 185.676 432.658 188.174 434.744C188.84 434.744 190.505 434.744 191.921 434.744C193.003 434.744 193.919 434.076 194.252 432.992C194.502 432.157 194.918 431.156 194.918 431.073Z" fill="#F2994A"/>
<path d="M205.659 319.447C205.41 320.281 204.993 321.032 204.327 321.7C203.578 322.45 202.662 322.868 201.746 323.118C201.663 323.285 201.663 323.451 201.663 323.535C201.33 324.703 200.83 325.537 200.081 326.288C198.915 327.456 197.5 327.789 196.75 327.956C196.667 327.956 196.5 328.04 196.417 328.04C196.334 328.373 196.167 328.707 196.084 329.041C195.834 329.625 195.501 330.125 195.002 330.542C194.336 331.293 193.503 331.794 192.587 331.961C184.594 333.796 175.601 331.21 168.524 324.953C161.03 318.446 157.033 309.436 157.783 300.844C158.199 296.339 160.114 292.084 163.195 288.998C165.693 286.495 168.94 284.743 172.437 284.076C180.264 282.491 189.09 285.327 196.084 291.667C204.494 299.259 208.241 310.187 205.659 319.447ZM194.252 293.753C187.924 287.997 180.014 285.411 173.103 286.829C170.106 287.413 167.441 288.914 165.276 291C162.695 293.586 161.03 297.173 160.697 301.094C160.031 308.769 163.611 316.944 170.439 322.784C176.767 328.457 184.843 330.876 191.921 329.208C192.337 329.124 192.67 328.957 193.003 328.624C193.17 328.457 193.336 328.207 193.503 327.956C193.836 327.206 193.753 326.371 193.336 325.787C194.335 325.704 195.251 325.537 196.167 325.287C196.917 325.12 197.583 324.953 198.166 324.369C198.499 324.035 198.832 323.535 198.998 322.868C199.248 321.95 199.415 321.032 199.498 320.115C199.748 320.198 199.997 320.281 200.247 320.365C200.997 320.615 201.913 320.365 202.495 319.781C202.745 319.531 202.995 319.113 203.078 318.78C205.743 308.686 199.998 299.009 194.252 293.753Z" fill="#F2994A"/>
<path d="M194.169 300.176C189.589 294.504 182.928 291 176.684 291C173.353 291 170.356 292.168 168.274 294.337C166.858 295.838 165.859 297.674 165.36 299.759C163.944 306.266 167.358 313.024 171.105 317.111C174.435 320.782 179.764 324.536 185.759 325.12C185.093 324.536 184.51 323.952 183.928 323.451L183.595 323.118C181.679 321.283 179.598 319.447 178.515 316.778C177.849 315.276 177.183 313.691 176.6 312.189C175.934 310.604 175.268 308.852 174.519 307.267L174.352 306.85C172.853 303.43 171.271 299.926 168.773 297.507C168.357 297.09 168.107 296.506 168.107 295.922C168.107 295.338 168.357 294.754 168.773 294.337C169.606 293.503 170.938 293.419 171.854 294.17C176.101 297.757 180.68 301.428 185.26 305.015C188.507 307.518 192.004 310.271 195.585 312.69L196.001 312.94C197 313.608 198.082 314.358 199.165 314.942C199.581 310.02 197.832 304.765 194.169 300.176Z" fill="#F2994A"/>
<path d="M194.918 317.612C194.336 317.278 193.836 316.944 193.42 316.611C189.756 314.108 186.092 311.355 183.012 308.936C181.596 307.851 180.264 306.767 178.848 305.682C179.431 307.101 179.931 308.435 180.514 309.854C181.097 311.355 181.679 312.773 182.262 314.108C183.428 316.861 185.676 319.197 188.174 321.283C188.84 321.283 190.505 321.283 191.921 321.283C193.003 321.283 193.919 320.615 194.252 319.531C194.502 318.696 194.918 317.695 194.918 317.612Z" fill="#F2994A"/>
<path d="M205.659 205.986C205.41 206.82 204.993 207.571 204.327 208.239C203.578 208.989 202.662 209.406 201.746 209.657C201.663 209.824 201.663 209.99 201.663 210.074C201.33 211.242 200.83 212.076 200.081 212.827C198.915 213.995 197.5 214.328 196.75 214.495C196.667 214.495 196.5 214.579 196.417 214.579C196.334 214.912 196.167 215.246 196.084 215.58C195.834 216.164 195.501 216.664 195.002 217.081C194.336 217.832 193.503 218.333 192.587 218.5C184.594 220.335 175.601 217.749 168.524 211.492C161.03 204.985 157.033 195.975 157.783 187.383C158.199 182.878 160.114 178.623 163.195 175.537C165.693 173.034 168.94 171.282 172.437 170.615C180.264 169.03 189.09 171.866 196.084 178.206C204.494 185.798 208.241 196.726 205.659 205.986ZM194.252 180.292C187.924 174.536 180.014 171.949 173.103 173.368C170.106 173.952 167.441 175.453 165.276 177.539C162.695 180.125 161.03 183.712 160.697 187.633C160.031 195.308 163.611 203.483 170.439 209.323C176.767 214.996 184.843 217.415 191.921 215.747C192.337 215.663 192.67 215.496 193.003 215.163C193.17 214.996 193.336 214.745 193.503 214.495C193.836 213.744 193.753 212.91 193.336 212.326C194.335 212.243 195.251 212.076 196.167 211.826C196.917 211.659 197.583 211.492 198.166 210.908C198.499 210.574 198.832 210.074 198.998 209.406C199.248 208.489 199.415 207.571 199.498 206.653C199.748 206.737 199.997 206.82 200.247 206.904C200.997 207.154 201.913 206.904 202.495 206.32C202.745 206.069 202.995 205.652 203.078 205.319C205.743 195.225 199.998 185.547 194.252 180.292Z" fill="#F2994A"/>
<path d="M194.169 186.715C189.589 181.043 182.928 177.539 176.684 177.539C173.353 177.539 170.356 178.707 168.274 180.876C166.858 182.377 165.859 184.213 165.36 186.298C163.944 192.805 167.358 199.562 171.105 203.65C174.435 207.321 179.764 211.075 185.759 211.659C185.093 211.075 184.51 210.491 183.928 209.99L183.595 209.657C181.679 207.821 179.598 205.986 178.515 203.317C177.849 201.815 177.183 200.23 176.6 198.728C175.934 197.143 175.268 195.391 174.519 193.806L174.352 193.389C172.853 189.969 171.271 186.465 168.773 184.046C168.357 183.629 168.107 183.045 168.107 182.461C168.107 181.877 168.357 181.293 168.773 180.876C169.606 180.041 170.938 179.958 171.854 180.709C176.101 184.296 180.68 187.967 185.26 191.554C188.507 194.057 192.004 196.81 195.585 199.229L196.001 199.479C197 200.146 198.082 200.897 199.165 201.481C199.581 196.559 197.832 191.304 194.169 186.715Z" fill="#F2994A"/>
<path d="M194.918 204.151C194.336 203.817 193.836 203.483 193.42 203.15C189.756 200.647 186.092 197.894 183.012 195.475C181.596 194.39 180.264 193.306 178.848 192.221C179.431 193.639 179.931 194.974 180.514 196.392C181.097 197.894 181.679 199.312 182.262 200.647C183.428 203.4 185.676 205.736 188.174 207.821C188.84 207.821 190.505 207.821 191.921 207.821C193.003 207.821 193.919 207.154 194.252 206.07C194.502 205.235 194.918 204.234 194.918 204.151Z" fill="#F2994A"/>
<path d="M205.659 92.525C205.41 93.3593 204.993 94.1101 204.327 94.7775C203.578 95.5283 202.662 95.9454 201.746 96.1956C201.663 96.3625 201.663 96.5293 201.663 96.6128C201.33 97.7807 200.83 98.6149 200.081 99.3657C198.915 100.534 197.5 100.867 196.75 101.034C196.667 101.034 196.5 101.118 196.417 101.118C196.334 101.451 196.167 101.785 196.084 102.119C195.834 102.703 195.501 103.203 195.002 103.62C194.336 104.371 193.503 104.872 192.587 105.038C184.594 106.874 175.601 104.288 168.524 98.031C161.03 91.5239 157.033 82.5143 157.783 73.9217C158.199 69.4168 160.114 65.1623 163.195 62.0756C165.693 59.5729 168.94 57.821 172.437 57.1536C180.264 55.5686 189.09 58.405 196.084 64.7451C204.494 72.3366 208.241 83.2651 205.659 92.525ZM194.252 66.8307C187.924 61.0745 180.014 58.4884 173.103 59.9066C170.106 60.4906 167.441 61.9922 165.276 64.0778C162.695 66.6639 161.03 70.2511 160.697 74.172C160.031 81.8469 163.611 90.0223 170.439 95.862C176.767 101.535 184.843 103.954 191.921 102.286C192.337 102.202 192.67 102.035 193.003 101.702C193.17 101.535 193.336 101.284 193.503 101.034C193.836 100.283 193.753 99.4491 193.336 98.8652C194.335 98.7818 195.251 98.6149 196.167 98.3646C196.917 98.1978 197.583 98.0309 198.166 97.447C198.499 97.1133 198.832 96.6128 198.998 95.9454C199.248 95.0277 199.415 94.1101 199.498 93.1924C199.748 93.2758 199.997 93.3593 200.247 93.4427C200.997 93.693 201.913 93.4427 202.495 92.8587C202.745 92.6085 202.995 92.1913 203.078 91.8576C205.743 81.7635 199.998 72.0864 194.252 66.8307Z" fill="#F2994A"/>
<path d="M194.169 73.2543C189.589 67.5815 182.928 64.0777 176.684 64.0777C173.353 64.0777 170.356 65.2457 168.274 67.4147C166.858 68.9163 165.859 70.7516 165.36 72.8372C163.944 79.3442 167.358 86.1014 171.105 90.1892C174.435 93.8598 179.764 97.6138 185.759 98.1978C185.093 97.6138 184.51 97.0299 183.928 96.5293L183.595 96.1956C181.679 94.3603 179.598 92.525 178.515 89.8555C177.849 88.3539 177.183 86.7688 176.6 85.2672C175.934 83.6822 175.268 81.9303 174.519 80.3452L174.352 79.9281C172.853 76.5078 171.271 73.004 168.773 70.5847C168.357 70.1676 168.107 69.5837 168.107 68.9997C168.107 68.4157 168.357 67.8318 168.773 67.4147C169.606 66.5804 170.938 66.497 171.854 67.2478C176.101 70.835 180.68 74.5056 185.26 78.0928C188.507 80.5955 192.004 83.3485 195.585 85.7677L196.001 86.018C197 86.6854 198.082 87.4362 199.165 88.0202C199.581 83.0982 197.832 77.8426 194.169 73.2543Z" fill="#F2994A"/>
<path d="M194.918 90.6897C194.336 90.356 193.836 90.0223 193.42 89.6887C189.756 87.186 186.092 84.433 183.012 82.0137C181.596 80.9292 180.264 79.8447 178.848 78.7602C179.431 80.1784 179.931 81.5132 180.514 82.9314C181.097 84.433 181.679 85.8512 182.262 87.186C183.428 89.9389 185.676 92.2748 188.174 94.3603C188.84 94.3603 190.505 94.3603 191.921 94.3603C193.003 94.3603 193.919 93.693 194.252 92.6085C194.502 91.7742 194.918 90.7731 194.918 90.6897Z" fill="#F2994A"/>
</g>
<defs>
<linearGradient id="paint0_linear" x1="207" y1="0" x2="207" y2="458" gradientUnits="userSpaceOnUse">
<stop stop-color="white"/>
<stop offset="1" stop-color="white" stop-opacity="0"/>
</linearGradient>
</defs>
</svg>
